<?xml version="1.0" encoding="utf-8"?>
<!-- Generator: Adobe Illustrator 25.2.0, SVG Export Plug-In . SVG Version: 6.00 Build 0)  -->
<svg version="1.1" id="_x2018_лой_x5F_1" xmlns="http://www.w3.org/2000/svg" xmlns:xlink="http://www.w3.org/1999/xlink"
	 x="0px" y="0px" viewBox="0 0 3200 2000" style="enable-background:new 0 0 3200 2000;" xml:space="preserve">
<style type="text/css">
	.st0{fill:#EBF3FA;}
	.st1{display:none;}
	.st2{display:inline;fill:#C0D8FB;}
	.st3{display:inline;fill:#DFEBFD;}
	.st4{display:inline;}
	.st5{fill:#B7D3F3;}
	.st6{fill:#82B378;}
	.st7{fill:#A8D29F;}
	.st8{display:inline;fill:#8CB4F4;}
	.st9{display:inline;fill:#99C3FF;}
	.st10{display:none;fill:#2A4E96;}
	.st11{display:inline;fill:#C3DAFC;}
	.st12{display:inline;fill:#D4E4F8;}
	.st13{display:inline;fill:#9DC3F3;}
	.st14{display:inline;fill:#E3F0FF;}
	.st15{display:inline;fill:#FFFFFF;}
	.st16{fill:#B0D4FF;}
	.st17{fill:#D2E3FC;}
	.st18{fill:#AFCDFB;}
	.st19{fill:#AAC8E8;}
	.st20{fill:#9FC3F7;}
	.st21{fill:#8BB3EE;}
	.st22{fill:#77A4E5;}
	.st23{display:inline;fill:#FFB27D;}
	.st24{fill:#FFB27D;}
	.st25{fill:#ED975D;}
	.st26{fill:#2A4E96;}
	.st27{fill:#2C3A64;}
	.st28{fill:#FF9E55;}
	.st29{fill:#ED823A;}
	.st30{fill:#A9453D;}
	.st31{display:inline;fill:#9ABFE2;}
	.st32{display:inline;fill:#BAD4F4;}
	.st33{display:inline;fill:#C8DBF4;}
	.st34{display:inline;fill:#2A4E96;}
	.st35{display:inline;fill:#618DC1;}
	.st36{display:inline;fill:#ED823A;}
	.st37{display:inline;fill:#FF9E55;}
	.st38{display:inline;fill:#DD732C;}
	.st39{fill:#D8702A;}
	.st40{fill:#C15E1B;}
	.st41{fill:#FFFFFF;}
	.st42{display:inline;fill:#ED975D;}
	.st43{display:inline;fill:#2C3A64;}
	.st44{display:inline;fill:#9FC1F4;}
	.st45{fill:#FF9843;}
	.st46{fill:#FFC48A;}
	.st47{display:none;fill:#2E3552;}
</style>
<g>
	<path class="st0" d="M521.02,1377.39l29-1293.8c16.85,8.78,591.42,166.33,769.9,470.48c83.89,142.95,115.01,248.22,115.85,327.32
		c0.02,0.97,0.02,1.93,0.02,2.87c0.29,194.16-183.11,228.97-209.43,278.86c-93.28,176.85,110.44,369.3,39.04,508.14
		C1184.77,1828.05,711.3,1567.83,521.02,1377.39z"/>
	<g class="st1">
		<path class="st2" d="M1038.04,1368.47l1.27-63.07c0.06-2.9,4.89-2.77,10.75,0.28l77.82,40.54c5.85,3.05,10.59,7.91,10.54,10.81
			l-1.27,63.07c-0.06,2.9-4.89,2.77-10.75-0.28l-77.83-40.54C1042.72,1376.23,1037.98,1371.37,1038.04,1368.47z"/>
		<path class="st3" d="M1042.38,1367.98l1.16-57.61c0.05-2.64,4.47-2.53,9.82,0.25l71.08,37.03c5.35,2.78,9.68,7.23,9.62,9.87
			l-1.16,57.61c-0.05,2.64-4.47,2.53-9.82-0.25l-71.08-37.03C1046.66,1375.06,1042.33,1370.62,1042.38,1367.98z"/>
		<g class="st4">
			<g>
				<path class="st5" d="M1124.47,1380.09c1.17,0.61,2.1,1.78,2.09,2.63c-0.02,0.84-0.98,1.03-2.15,0.42
					c-1.17-0.61-2.1-1.79-2.09-2.63C1122.34,1379.67,1123.3,1379.48,1124.47,1380.09z"/>
				<path class="st5" d="M1121.23,1390.84c1.01,0.94,1.36,2.06,0.78,2.5c-0.58,0.44-1.88,0.03-2.89-0.91
					c-1.01-0.94-1.36-2.06-0.78-2.5C1118.92,1389.49,1120.22,1389.9,1121.23,1390.84z"/>
				<path class="st5" d="M1109.4,1395.32c0.62,1.04,0.32,1.83-0.67,1.78c-0.99-0.05-2.3-0.94-2.92-1.98
					c-0.62-1.04-0.32-1.83,0.67-1.78C1107.47,1393.4,1108.78,1394.28,1109.4,1395.32z"/>
				<path class="st5" d="M1091.3,1391.17c-0.02,0.84-0.98,1.03-2.15,0.42c-1.17-0.61-2.1-1.78-2.09-2.63
					c0.02-0.84,0.98-1.03,2.15-0.42C1090.39,1389.15,1091.32,1390.33,1091.3,1391.17z"/>
				<path class="st5" d="M1070.48,1377.63c-0.84,0.16-2.18-0.53-2.99-1.56c-0.81-1.03-0.8-1.99,0.04-2.16
					c0.84-0.17,2.18,0.53,2.99,1.56S1071.32,1377.47,1070.48,1377.63z"/>
				<path class="st5" d="M1057.35,1361.12c-0.84,0.16-2.18-0.53-2.99-1.56c-0.81-1.03-0.8-1.99,0.04-2.16s2.18,0.53,2.99,1.56
					C1058.21,1359.99,1058.19,1360.95,1057.35,1361.12z"/>
				<path class="st5" d="M1050.8,1341.72c1.17,0.61,2.1,1.78,2.09,2.63c-0.02,0.84-0.98,1.03-2.15,0.42
					c-1.17-0.61-2.1-1.78-2.09-2.63C1048.67,1341.3,1049.63,1341.11,1050.8,1341.72z"/>
			</g>
			<g>
				<path class="st5" d="M1121.66,1369.23c1.03,0.12,1.42-0.61,0.86-1.65c-0.55-1.03-1.84-1.97-2.87-2.09
					c-1.03-0.12-1.42,0.61-0.86,1.65C1119.35,1368.17,1120.63,1369.11,1121.66,1369.23z"/>
				<path class="st5" d="M1110.25,1352.64c0.65-0.38,0.38-1.47-0.59-2.44c-0.97-0.97-2.29-1.45-2.93-1.07
					c-0.65,0.38-0.38,1.47,0.59,2.44C1108.29,1352.54,1109.61,1353.02,1110.25,1352.64z"/>
				<path class="st5" d="M1092.37,1338.05c0.02-0.84-0.92-2.02-2.09-2.63c-1.17-0.61-2.13-0.42-2.15,0.42
					c-0.02,0.84,0.92,2.02,2.09,2.63C1091.39,1339.08,1092.35,1338.89,1092.37,1338.05z"/>
				<path class="st5" d="M1071.44,1329.84c-0.81-1.03-2.15-1.72-2.99-1.56c-0.84,0.16-0.86,1.13-0.04,2.16
					c0.81,1.03,2.15,1.72,2.99,1.56S1072.26,1330.86,1071.44,1329.84z"/>
				<path class="st5" d="M1057.93,1332.47c-0.81-1.03-2.15-1.72-2.99-1.56s-0.86,1.13-0.04,2.16c0.81,1.03,2.15,1.72,2.99,1.56
					S1058.74,1333.5,1057.93,1332.47z"/>
			</g>
		</g>
		<g class="st4">
			<path class="st5" d="M1089.73,1363.12c1.17,0.61,2.1,1.78,2.09,2.63c-0.02,0.84-0.98,1.03-2.15,0.42
				c-1.17-0.61-2.1-1.78-2.09-2.63C1087.6,1362.7,1088.56,1362.51,1089.73,1363.12z"/>
			<g>
				<polygon class="st5" points="1089.69,1364.85 1089.7,1364.44 1116.14,1378.21 1116.13,1378.62 				"/>
			</g>
			<g>
				<polygon class="st5" points="1089.05,1364.5 1090.43,1364.44 1101.23,1380.27 1099.85,1380.33 				"/>
			</g>
		</g>
	</g>
	<g class="st1">
		<g class="st4">
			<path class="st6" d="M862.98,1133.35c0,0,12.96,14.94,21.45,11.68c0,0,4.78-3.12,4.49-7.85c0,0-15.07-1.36-16.51-4.21
				c-1.44-2.85,17.49,2.76,17.49,2.76s1.96-11.76-0.68-17.24c0,0-12.49,4.41-13.18,1.76s11.6-8.05,11.6-8.05
				s-2.54-13.21-12.52-17.78c-9.98-4.56-13.13-2.11-12.91-0.19c0.23,1.92,5.54,15.22,3.51,14.39c-2.03-0.83-8.53-10.55-8.75-15.11
				c0,0-12.87,1.68-9.31,9.1c3.55,7.42,9.35,10.92,11.46,15.49c2.11,4.57,2.05,7.5-0.15,4.93c-2.19-2.58-4.23-9.92-9.01-14.4
				c-4.79-4.48-8.01-7.94-6.93-1.61c1.08,6.33,6.68,18.62,13.31,22.48C862.98,1133.35,862.98,1133.35,862.98,1133.35z"/>
			<g>
				<path class="st6" d="M874.75,1100.05c0,0,1.07,32.85-11.76,33.3c0,0-6.52-1.82-12.53-0.09l-2.85-0.73c0,0,8.22-1.32,8.75-3.04
					C856.36,1129.49,872.01,1140.78,874.75,1100.05z"/>
				<path class="st6" d="M850.46,1133.26c0,0-7.18,3.19-19.77-2.89l-0.13-1.33c0,0,13.05,4.59,18.22,3.28
					C853.95,1131.01,850.46,1133.26,850.46,1133.26z"/>
			</g>
		</g>
		<g class="st4">
			<path class="st7" d="M878.92,1170.29c0,0,10.28-7.67,23.76,5.43c0,0,8.26,9.16,10.3,15.44c0,0-20.23-13.32-20.76-10.82
				c-0.53,2.5,22.87,13.83,22.87,13.83s8.79,18.31,7.97,23.26c0,0-19.64-18.74-19.21-15.74c0.42,3,20.28,22.9,20.28,22.9
				s3.3,15.79-8.2,12.06c-11.5-3.73-17.15-10.33-17.83-12.76c-0.68-2.44-0.17-15.55-2.56-16.45c-2.39-0.9-6.39,6.05-4.34,12.16
				c0,0-18.74-15.32-17.64-22.05c1.1-6.72,7.35-5.73,7.92-9.95c0.57-4.22-1.04-8.36-2.75-6.99s-0.74,9.52-5.08,10.91
				c-4.33,1.39-7.02,2.95-8.79-4.75c-1.77-7.7-0.34-19.11,6.87-17.79C878.92,1170.29,878.92,1170.29,878.92,1170.29z"/>
			<g>
				<path class="st6" d="M912.48,1228.43c0,0-15.5-44.56-33.55-58.13c0,0-8.12-4.05-17.35-12.51l-3.58-1.86
					c0,0,12.09,10.12,13.72,13.06C871.71,1168.97,887.63,1169.1,912.48,1228.43z"/>
				<path class="st6" d="M861.57,1157.78c0,0-11.62-11.68-25.97-15.95l0.51,1.71c0,0,15.76,6.81,23.62,13.84
					C867.58,1164.42,861.57,1157.78,861.57,1157.78z"/>
			</g>
		</g>
		<g class="st4">
			<path class="st7" d="M893.16,1156.98c0,0,12.87,23.88,30.96,25.29c0,0,11.14-0.61,14.1-5.93c0,0-26.81-10.3-27.37-14.26
				c-0.56-3.95,30.25,13.24,30.25,13.24s12.31-11.68,11.51-19.19c0,0-26.33-2.5-25.63-5.79c0.7-3.3,27.37-2,27.37-2
				s5.09-15.9-9.95-26.71c-15.04-10.81-22.68-9.99-23.68-7.76c-1,2.23-1.03,19.84-4.17,17.75c-3.14-2.09-7.93-16.5-4.97-21.6
				c0,0-25-5.69-23.93,4.48c1.07,10.17,9.19,17.38,9.7,23.6c0.51,6.22-1.78,9.38-3.92,5.29c-2.14-4.09-0.46-13.29-5.98-20.98
				c-5.52-7.68-8.9-13.34-11.6-5.81c-2.69,7.53-1.44,24.21,7.93,32.3C893.16,1156.98,893.16,1156.98,893.16,1156.98z"/>
			<g>
				<path class="st6" d="M939.52,1127.55c0,0-22.35,36.45-46.36,29.44c0,0-10.69-5.8-23.05-7.43l-4.72-2.46c0,0,16.14,3.37,18.4,1.8
					C883.78,1148.89,904.33,1170.36,939.52,1127.55z"/>
				<path class="st6" d="M870.1,1149.55c0,0-15.62-0.72-34.36-14.71l0.74-1.52c0,0,20.7,12.64,31.21,14.23
					C878.2,1149.14,870.1,1149.55,870.1,1149.55z"/>
			</g>
		</g>
		<path class="st8" d="M795.05,1106.45c0.37-18.39,21.36-22.52,46.88-9.22l-1.34,66.59
			C815.07,1150.52,794.68,1124.84,795.05,1106.45z"/>
		<path class="st9" d="M795.2,1116.47c-0.21-1.48-0.3-2.92-0.27-4.32c0.37-18.39,21.36-22.52,46.88-9.22l-0.17,8.27
			C818.07,1098.92,798.36,1101.5,795.2,1116.47z"/>
		<path class="st8" d="M793.37,1071.47l-1.36,67.51l0,0c3.15,1.64,5.74,1.13,5.78-1.14l1.19-59.3
			C799.04,1076.28,796.52,1073.11,793.37,1071.47L793.37,1071.47z"/>
		<polygon class="st9" points="840.53,1095.73 839.15,1164.18 840.57,1164.91 841.94,1096.47 		"/>
	</g>
	<polygon class="st10" points="823.27,432.2 787.99,418.83 786.96,407.49 821.44,413.26 	"/>
	<polygon class="st10" points="876.55,806.9 841.27,793.53 840.24,782.18 874.72,787.96 	"/>
	<g class="st1">
		<polygon class="st11" points="545.24,253.69 543.72,329.19 630.13,374.2 631.65,298.71 		"/>
		<polygon class="st12" points="544.48,291.44 542.97,366.94 629.37,411.95 630.89,336.45 		"/>
		<polygon class="st13" points="567.15,265.15 566.91,277.12 571.61,278.5 574.92,281.29 575.16,269.33 		"/>
		<polygon class="st14" points="604.15,322.53 603.91,334.49 608.6,335.87 611.92,338.66 612.16,326.7 		"/>
		<polygon class="st13" points="612.16,326.7 612.4,314.73 607.7,313.35 604.39,310.56 604.15,322.53 		"/>
		<polygon class="st14" points="563.95,377.88 564.19,365.91 559.5,364.53 556.18,361.74 555.94,373.7 		"/>
		<polygon class="st15" points="611.88,397.85 612.32,376.12 624.05,382.23 623.61,403.96 		"/>
	</g>
	<g class="st1">
		<polygon class="st11" points="542.8,375.03 541.29,450.53 627.69,495.54 629.21,420.04 		"/>
		<polygon class="st12" points="542.05,412.78 540.53,488.28 626.93,533.29 628.45,457.79 		"/>
		<polygon class="st13" points="564.72,386.49 564.48,398.45 569.17,399.83 572.49,402.63 572.73,390.66 		"/>
		<polygon class="st14" points="601.71,443.86 601.47,455.83 606.16,457.21 609.48,460 609.72,448.04 		"/>
		<polygon class="st13" points="609.72,448.04 609.96,436.07 605.27,434.69 601.95,431.9 601.71,443.86 		"/>
		<polygon class="st14" points="561.51,499.21 561.75,487.25 557.06,485.87 553.74,483.08 553.5,495.04 		"/>
		<polygon class="st15" points="609.44,519.18 609.88,497.46 621.61,503.57 621.17,525.3 		"/>
	</g>
	<g class="st1">
		<polygon class="st11" points="629.34,362.94 627.82,438.44 714.23,483.45 715.74,407.95 		"/>
		<polygon class="st12" points="628.58,400.69 627.07,476.19 713.47,521.2 714.99,445.7 		"/>
		<polygon class="st13" points="651.25,374.4 651.01,386.36 655.71,387.74 659.02,390.54 659.26,378.57 		"/>
		<polygon class="st14" points="688.25,431.77 688.01,443.73 692.7,445.11 696.02,447.91 696.26,435.94 		"/>
		<polygon class="st13" points="696.26,435.94 696.5,423.98 691.8,422.6 688.49,419.81 688.25,431.77 		"/>
		<polygon class="st14" points="648.05,487.12 648.29,475.16 643.6,473.78 640.28,470.98 640.04,482.95 		"/>
		<polygon class="st15" points="695.98,507.09 696.42,485.37 708.15,491.48 707.71,513.2 		"/>
	</g>
	<g class="st1">
		<g class="st4">
			<path class="st16" d="M1014.51,849.73c-4.3-3.27-9.81-18.81-15.69-40.86c-1.04-3.89-2.08-7.97-3.14-12.23
				c-18.41-74.33-47.15-268.34-45.64-278.85c2.08-14.52,196.24,40.58,196.24,40.58s13.57,96.47,23.73,172.82
				c3.47,26.12,15.24,116.82,17.26,133.57C1190.41,890.7,1021.48,855.01,1014.51,849.73z"/>
			<path class="st17" d="M1036.74,834.51c0,0,132.18,30.65,143.33,33.58c4.97,1.3,6.46-0.79,6.57-3.51c1.22,5.42,1.72,9.2,1.72,9.2
				c1.23,10.15-5.93,15.53-17.8,13.37c-25.89-4.72-75.56-13.31-124.19-22.26C1046.31,864.22,1036.74,834.51,1036.74,834.51z"/>
			<path class="st17" d="M938.09,959.26c-34.61-19.73-60-59.92-63.8-91.31l-7.53-62.18l197.29,91.77c0,0,30.54,69.69,11.78,75.5
				c-16.43,5.09-83.46,8.97-125.44-7.83C946.19,963.53,942.08,961.53,938.09,959.26z"/>
			<path class="st18" d="M938.09,959.26c-34.61-19.73-60-59.92-63.8-91.31l-3.69-30.5C888.71,864.71,939.16,904.41,938.09,959.26z"
				/>
			<path class="st19" d="M1039.82,848.01c0,0,58.75,105.36,28.93,107.21c-15.84,0.98-80.28-5.53-122.27-22.47
				c-40.81-16.46-71.56-59.68-75.46-91.87l-6.92-57.18L1039.82,848.01z"/>
			<path class="st20" d="M908.9,894.74c-1.01-1.32-2.01-2.67-2.99-4.03c-12.25-16.88-22.74-36.47-30.24-56.9
				c-5.67-15.43-9.64-31.34-11.37-46.91l-3.3-27.19l-0.05-0.37l-15.62-128.71l-8.95-73.78l-0.13-1.09l0.04,0.01l15.86,4.59
				l160.2,48.71c0,0,47.92,327.14,32.98,345.42c-6.93,8.49-40.94,0.01-78.86-13.12C946.26,934.37,926.02,917.22,908.9,894.74z"/>
			<path class="st21" d="M908.9,894.74c-1.01-1.32-2.01-2.67-2.99-4.03c-12.25-16.88-22.74-36.47-30.24-56.9
				c-5.67-15.43-9.64-31.34-11.37-46.91l-3.3-27.19l-0.05-0.37l-15.62-128.71l-8.95-73.78l-0.09-1.08l15.86,4.59
				c16.02,49.88,34.31,117.18,41.38,182.08C900.27,804.41,906.69,856.65,908.9,894.74z"/>
			<path class="st17" d="M898.19,643.53c-33.63-19.64-57.91-56.56-61.34-84.92l-6.92-57.18l198.99,92.2c0,0,28.22,64.11,9.31,68.72
				c-16.56,4.04-83.93,5.07-125.93-11.87C907.45,648.52,902.73,646.19,898.19,643.53z"/>
			<path class="st18" d="M898.19,643.53c-33.63-19.64-57.91-56.56-61.34-84.92l-5.54-45.76
				C850.38,541.56,899.41,590.52,898.19,643.53z"/>
			<path class="st22" d="M892.85,610.2c-13.31-8.04-25.11-18.75-34.66-30.5l0-0.01c-5.7-7.01-10.6-14.4-14.55-21.8
				c-4.86-9.1-8.28-18.24-9.97-26.78c-0.08-0.44-0.17-0.88-0.25-1.32c-0.06-0.35-0.12-0.7-0.17-1.04c-0.1-0.58-0.19-1.16-0.26-1.73
				c-0.04-0.3-0.08-0.6-0.12-0.91l-6.92-57.18l0.03,0.01c-0.15-1.09-0.3-2.2-0.45-3.32c-0.79-5.92-1.61-12.1-2.36-17.83
				c-0.13-0.96-0.25-1.91-0.37-2.84c-0.05-0.35-0.09-0.69-0.13-1.03c-0.73-5.66-1.35-10.65-1.75-14.19
				c-0.57-4.98-0.74-9.52-0.47-13.59c0.33-5.26,1.38-9.76,3.21-13.5c0.33-0.67,0.67-1.31,1.05-1.93c0.38-0.63,0.79-1.23,1.23-1.81
				c1.16-1.54,2.51-2.9,4.05-4.08c3.98-3.04,9.27-4.85,15.99-5.42c4.67-0.39,10.03-0.19,16.13,0.64c7.45,1,16.01,2.93,25.74,5.8
				c0.25,0.07,0.49,0.14,0.74,0.22c4.47,1.33,9.19,2.85,14.16,4.57c2.26,0.78,4.58,1.61,6.95,2.47c8.36,3.05,17.39,6.62,27.11,10.69
				c0.85,0.35,1.7,0.72,2.56,1.08c0.19,0.08,0.38,0.16,0.57,0.24c7.72,3.28,15.87,6.88,24.47,10.79c3.77,1.72,7.61,3.49,11.55,5.33
				c1.79,0.84,3.6,1.69,5.42,2.55c9.16,4.33,18.77,8.97,28.84,13.94c4.52,2.23,9.14,4.53,13.85,6.89
				c19.41,9.73,40.44,20.59,63.17,32.57c25.8,13.6,43.96,24.15,48.5,29.83c6.69,8.38,10.55,21.39,12.52,30.13l0,0.01
				c1.22,5.42,1.72,9.19,1.72,9.19c0.02,0.18,0.04,0.37,0.06,0.55c0.01,0.13,0.02,0.26,0.03,0.39c0.02,0.31,0.04,0.61,0.04,0.91
				c0,0.17,0.01,0.34,0,0.5c0,0.11,0,0.22-0.01,0.32c0,0.16-0.01,0.33-0.02,0.48c-0.02,0.29-0.04,0.56-0.08,0.84
				c-0.02,0.19-0.05,0.38-0.08,0.56c0,0.02,0,0.03-0.01,0.05c-0.02,0.13-0.04,0.27-0.07,0.4c-0.05,0.25-0.1,0.5-0.17,0.74
				c-0.05,0.16-0.09,0.33-0.14,0.48c-0.04,0.11-0.07,0.22-0.11,0.33c-0.46,1.3-1.13,2.45-2,3.42c-2.99,3.34-8.34,4.65-15.31,3.38
				c-24.24-4.43-67.58-12.38-112.91-20.75c-0.23-0.04-0.46-0.08-0.68-0.13c-2.6-0.48-5.22-0.97-7.83-1.45
				c-0.26-0.05-0.53-0.1-0.79-0.15c-0.13-0.02-0.27-0.05-0.4-0.07c0.44,0.85,0.89,1.73,1.35,2.64c0.02,0.03,0.03,0.06,0.05,0.1
				c1.85,3.61,3.88,7.68,5.98,12.02l0,0c1.09,2.25,2.2,4.58,3.31,6.96c3.14,6.73,6.3,13.89,9.14,20.99
				c1.26,3.15,2.47,6.29,3.56,9.37c1.42,3.96,2.68,7.82,3.71,11.5c0.04,0.13,0.07,0.23,0.09,0.32c0.12,0.44,0.23,0.86,0.35,1.29
				c0.69,2.58,1.26,5.05,1.7,7.4l0,0c2.21,11.99,0.74,20.45-7.55,20.95c-3.1,0.19-8.06,0.09-14.35-0.32
				c-13-0.85-31.68-3.02-51.35-6.7c-19.54-3.66-40.05-8.8-56.94-15.62C903.1,615.88,897.87,613.23,892.85,610.2z"/>
			<path class="st17" d="M998.31,517.08c0,0,132.18,30.65,143.33,33.58c4.97,1.31,6.46-0.79,6.57-3.51c1.22,5.42,1.72,9.2,1.72,9.2
				c1.23,10.15-5.93,15.53-17.8,13.37c-25.89-4.72-73.62-13.43-122.25-22.38C1009.83,546.67,998.31,517.08,998.31,517.08z"/>
		</g>
		<path class="st23" d="M865.98,844.95c0.24-0.17-2.81-10.97-2.84-13.56c-0.03-2.27,2.77-9.28,5.67-8.72
			c0.42,0.08,1.05,10.34,2.37,12.59c0.66,1.12,3.5,5.9,3.17,8.5c-0.33,2.6-0.07,4.22-0.07,4.22L865.98,844.95z"/>
		<g class="st4">
			<path class="st24" d="M1022.07,446.23c0,0-20.12-1.58-15.89,15.26c0,0,9.18,8.84,16.43,13.47c0.89,0.57,1.76,1.12,2.58,1.65
				c8.16,5.23,12.71,8.31,12.71,8.31s0,0,0.01-0.01c0.5-0.33,16.71-11.11,15.75-11.7C1031.45,459.55,1022.07,446.23,1022.07,446.23z
				"/>
			<path class="st25" d="M1047.9,471.69c-5.47-1.43-16.84-1.66-22.72,4.92c8.16,5.23,12.71,8.31,12.71,8.31s0,0,0.01-0.01
				C1038.24,484.53,1049.52,472.1,1047.9,471.69z"/>
			<path class="st24" d="M1037.77,489.01c0,0-2.17-25,18.29-15.31c20.46,9.69,33.96,12.99,36.22,29.36
				c2.25,16.37-5.35,15.75-12.1,13.77C1073.44,514.84,1038.86,495.76,1037.77,489.01z"/>
			<path class="st26" d="M1050.5,471.22c-0.2-0.45-1.16-6.14,26.62,1.78c4.36,1.24,13.3,5.86,20.21,13.74
				c6.91,7.89,10.18,22.45,10.51,33.03c0.32,10.59-8.04,7.8-16.43,4.94c-8.81-3-17.24-0.91-17.24-0.91
				c-4.69-11.92,7.26-15.15,6.52-19.35c-0.74-4.2-8.32-10.31-10.78-12.14c-2.46-1.83-4.46-3.53-1.16-6.14
				c3.3-2.61-8.43-7.44-10.73-8.14C1058.03,478.03,1052.21,474.99,1050.5,471.22z"/>
		</g>
		<g class="st4">
			<path class="st27" d="M544.01,220.71l0.74-37.03c0.1-0.3,0.22-0.52,0.33-0.62c1.77-1.58,14.89,6.04,18.94,8.45
				c0.75,0.45,1.19,0.72,1.19,0.72s14.19,20.55,3.09,16.58c-0.35-0.12-0.69-0.23-1.02-0.34l-0.01,0
				c-10.4-3.13-15.31,4.52-16.74,9.67C549.45,222.07,545.82,221.35,544.01,220.71z"/>
			<path class="st27" d="M545.97,123.46l0.28-13.97c0.06-2.93,4.19-4.06,11.66-1c7.47,3.07,11.66-0.83,17.78,1.04
				c6.13,1.87,14.58,13.02,14.58,13.02l1.97,2.15l2.05,2.24l-3.83,9.18c0,0-3.66-1.63-8.32-3.89c-3.37-1.63-7.26-3.59-10.66-5.51
				c-8.13-4.56-16.92-7.16-18.61-2.78C551.17,128.34,545.97,123.46,545.97,123.46z"/>
			<path class="st28" d="M840.55,367.64c0,0-34.2-19.82-75.32-43.58c-55.85-32.29-124.46-71.87-137.47-79.02
				c-22.58-12.42-58.67-33.86-58.67-33.86s-8.46-10.65-4.59-21.14c0,0,51.82,15.85,106.47,41.14c0.9,0.42,1.8,0.84,2.7,1.26
				c55.63,26.02,172.74,82.42,172.74,82.42L840.55,367.64z"/>
			<path class="st29" d="M833.99,354.13c0,0-12.4-2.52-52.35-30.53c-29.31-20.55-110.68-92.43-110.68-92.43
				c0.9,0.42,1.8,0.84,2.7,1.26c55.63,26.02,172.74,82.42,172.74,82.42L833.99,354.13z"/>
			<path class="st28" d="M842.98,361.46c0,0-129.62-105.22-187.43-159.02c-57.81-53.8-73.93-69.6-73.93-69.6s7.72-9.54,12.83-8.12
				c0,0,112.34,67.58,139.45,97.56c15.32,16.94,61.62,51.59,77.88,60.55c16.26,8.96,48.39,28.42,48.39,28.42L842.98,361.46z"/>
			<path class="st26" d="M837.04,360.29c2.07-4,31.02-40.78,35.04-37.68c13.97,10.79,37.62,26.74,66.37,46.06
				c5.35,3.61,10.62,7.26,15.77,10.94c13.42,9.59,26.01,19.32,37.01,28.66c20.44,17.36,34.17,35.41,38.77,46.52
				c0.56,1.43-4.41,1.22-10.14,2.9c-5.28,1.56-5.27,6.04-5.8,10.72l-9.81-1.12c-8.51-1.19-20.39-4.62-30.03-9.28
				C974.21,458.01,836.86,360.65,837.04,360.29z"/>
			<path class="st28" d="M974.21,458.01l2.6-14.16l-63.24-71.36c-9.08-10.25-12.4-21.08-8.31-27.14l0,0l-45.09-34.09l-30.2,49.45
				L974.21,458.01z"/>
			<path class="st29" d="M1005.41,449.28c5.91,0.82,22.91,1.94,22.91,1.94s0.69,1.32,0.9,1.76c0.21,0.45,0.77,1.81,0.77,1.81
				c-0.3,1.38-17.21,0.74-23.54-0.02c-7.62-0.91-30.64-5.56-30.64-5.56l1-5.36C976.82,443.85,998.46,448.31,1005.41,449.28z"/>
		</g>
		<g class="st4">
			<path class="st24" d="M841.86,385.97c0,0-2.88,2.37-2.78,4.72c0.09,2.35-0.44,3.69-1.51,6.54c-1.07,2.85-2.65,2.17-3.38-0.74
				c-0.73-2.91,0.82-4.98-1.09-4.68c-1.91,0.3-3.76,11.51-5.88,10.25c-2.13-1.26-8.08-15.44-6.06-18.44
				c2.02-3,13.61-6.45,13.61-6.45L841.86,385.97z"/>
			<path class="st26" d="M835.01,381.86c3.68,5.43,6.73,6.04,6.73,6.04s54.19,4.22,59.26,5.2c5.07,0.98,69.87,38.3,69.87,38.3
				s25.83,15.64,33.69,10.53c6.83-4.44,12.35-4.2,7.59-12.43c-5.67-9.81-27.22-26.92-38.13-31.17
				c-24.49-9.53-70.87-29.51-80.33-31.18c-21.04-3.71-62.16,7.09-62.16,7.09S832.12,377.59,835.01,381.86z"/>
		</g>
		<g class="st4">
			<path class="st24" d="M1005.89,1020.49c0,0-14.54-20.76-3.39-27.69c0,0,10.61,3.91,17.84,8.62c0.89,0.58,1.75,1.14,2.57,1.67
				c8.15,5.28,12.76,8.11,12.76,8.11s0,0,0,0.01c0.18,0.77,5.99,25.74,5.04,25.1C1018.83,1021.56,1005.89,1020.49,1005.89,1020.49z"
				/>
			<path class="st25" d="M1036.04,1031.12c-4.44-4.96-12.33-17.15-13.13-28.03c8.15,5.28,12.76,8.11,12.76,8.11s0,0,0,0.01
				C1035.72,1011.84,1037.35,1032.59,1036.04,1031.12z"/>
			<path class="st24" d="M1037.7,1008.12c0,0-13.74,14.75,5.01,30.33c18.75,15.59,29.6,27.99,39.16,19.23
				c9.56-8.76,4.06-16.58-1.53-22.55C1074.76,1029.16,1041.76,1004.68,1037.7,1008.12z"/>
			<path class="st30" d="M1037.59,1034.26c-0.36,0.09-3.8,2.94,19.09,27.69c3.59,3.89,11.97,10.43,20.56,12.54
				c8.59,2.11,17.97-4.3,23.37-11.19c5.41-6.89-1.68-14.06-8.82-21.22c-7.49-7.51-12.24-18.09-12.24-18.09
				c-9.05,3.06-2.45,18.25-5.02,20.32c-2.57,2.07-10.74-1.98-13.32-3.39c-2.58-1.42-4.78-2.43-3.81,2.94
				c0.97,5.37-9.41-4.05-11.33-6.07C1046.07,1037.78,1040.6,1033.54,1037.59,1034.26z"/>
			<path class="st27" d="M534.48,805.7l-0.28,13.97c-0.06,2.93,3.95,8.3,11.38,13c7.44,4.7,11.38,12.84,17.46,17.32
				c6.07,4.48,14.79,2.28,14.79,2.28l2.01-0.08l2.1-0.08l-3.39-12.95c0,0-3.65-2.18-8.31-4.78c-3.36-1.87-7.25-3.96-10.66-5.6
				c-8.14-3.91-16.86-10.44-18.34-16.47C539.77,806.27,534.48,805.7,534.48,805.7z"/>
			<path class="st27" d="M536.43,708.44l-0.74,37.03c0.09,0.4,0.19,0.73,0.3,0.95c1.67,3.37,14.82,9.44,18.89,11.25
				c0.75,0.33,1.2,0.52,1.2,0.52s14.72-5.49,3.68-13.05c-0.34-0.24-0.68-0.48-1.01-0.72l-0.01,0
				c-10.31-7.66-14.81-20.21-16.01-26.73C541.82,712.72,538.23,709.68,536.43,708.44z"/>
			<path class="st28" d="M832.67,870.31c0,0-34.28-15.86-75.49-34.98c-55.98-25.97-124.74-57.95-137.76-64.35
				c-22.61-11.12-58.8-27.34-58.8-27.34s-8.71,1.71-5.34,15.97c0,0,51.37,37.9,105.9,69.49c0.89,0.51,1.79,1.03,2.69,1.55
				c55.51,31.88,172.44,97.39,172.44,97.39L832.67,870.31z"/>
			<path class="st29" d="M834.8,878.86c0,0-21.34-12.41-61.57-26.17c-29.52-10.1-112.06-23.6-112.06-23.6
				c0.89,0.51,1.79,1.03,2.69,1.55c55.51,31.88,172.44,97.39,172.44,97.39L834.8,878.86z"/>
			<path class="st28" d="M834.8,878.86c0,0-131.11-30.61-189.87-37.53c-58.75-6.92-75.16-8.07-75.16-8.07s7.18,17.31,12.24,21.18
				c0,0,112.7,49.65,140.44,48.24c15.68-0.79,62.4,13.02,78.67,21c16.27,7.98,48.52,22.07,48.52,22.07L834.8,878.86z"/>
			<path class="st26" d="M837.3,878.27c-0.54,4.99,1.24,61.58,5.51,63.81c14.85,7.79,38.84,22.54,67.97,40.54
				c5.43,3.35,10.82,6.56,16.15,9.64c13.88,8.01,27.26,15.01,39.36,20.57c22.49,10.31,40.73,12.87,49.32,10.26
				c1.09-0.36-2.42-5.62-5.51-12.99c-2.85-6.8-0.65-9.86,1.28-13.63l-7.26-9.89c-6.4-8.42-16.22-18.97-25.1-26.25
				C979.03,960.33,837.36,877.83,837.3,878.27z"/>
			<path class="st28" d="M979.03,960.33l-5.16,12.51L895.64,953c-11.23-2.85-18.81,0.96-18.98,9.54l0,0l-38.38-21.83l-5.61-70.41
				L979.03,960.33z"/>
			<path class="st26" d="M870.97,844.27c5.95,2.02,7.47,4.94,7.47,4.94s21.11,54.01,23.6,58.87c2.49,4.86,56.06,59.08,56.06,59.08
				s22.03,21.37,20.07,31.04c-1.7,8.4-10.39,8.55-19.15,6.33c-10.43-2.64-22.06-10.89-29.29-20.68
				c-16.23-21.96-48.32-65.78-52.82-74.9c-10.02-20.3-13.74-65.78-13.74-65.78S866.3,842.68,870.97,844.27z"/>
			<path class="st29" d="M996.1,1000.17c4.45,5.86,16.63,23.55,16.63,23.55s1.34-0.19,1.78-0.29c0.28-0.06,1.11-0.34,1.11-0.34
				c0.47-1.27-11.42-19.19-16.12-25.54c-5.66-7.65-23.6-29.63-23.6-29.63l-2.03,4.93C973.87,972.84,990.86,993.28,996.1,1000.17z"/>
		</g>
	</g>
	<g class="st1">
		<path class="st31" d="M779.12,802.52l-6.15-3.2c-2.15-1.12-3.9-2.54-3.89-3.15l3.25-161.75c0.01-0.61,1.78-0.2,3.94,0.92l6.15,3.2
			c2.15,1.12,3.9,2.54,3.89,3.15l-3.25,161.75C783.05,804.06,781.27,803.64,779.12,802.52z"/>
		<path class="st32" d="M779.12,802.52l-6.15-3.2c-2.15-1.12-3.9-2.5-3.89-3.06l2.58-128.42c0.01-0.56,1.78-0.11,3.93,1.01l6.15,3.2
			c2.15,1.12,3.9,2.5,3.89,3.06l-2.58,128.42C783.05,804.1,781.27,803.64,779.12,802.52z"/>
		<polygon class="st33" points="537.57,635.32 539.88,520.48 772.19,641.5 769.88,756.34 		"/>
		<polygon class="st3" points="536.92,667.5 539.23,552.66 771.54,673.68 769.23,788.52 		"/>
		<g class="st4">
			<g>
				<path class="st5" d="M549.87,668.01l2.06-102.49l212.92,110.92l-2.06,102.49L549.87,668.01z M553.44,567.42l-2.01,100.28
					l209.85,109.32l2.01-100.28L553.44,567.42z"/>
			</g>
			<g>
				<polygon class="st5" points="690.83,740.89 692.87,639.5 694.41,640.3 692.37,741.69 				"/>
			</g>
			<g>
				<polygon class="st5" points="619.02,703.48 621.06,602.09 622.6,602.89 620.56,704.28 				"/>
			</g>
			<path class="st5" d="M749.88,730.92l0.38-18.81c0.02-0.91,1.07-1.12,2.34-0.46l0,0c1.27,0.66,2.29,1.95,2.27,2.86l-0.38,18.81
				c-0.02,0.91-1.07,1.12-2.34,0.46l0,0C750.89,733.12,749.87,731.83,749.88,730.92z"/>
			<path class="st5" d="M679.66,694.34l0.38-18.81c0.02-0.91,1.07-1.12,2.34-0.46l0,0c1.27,0.66,2.29,1.95,2.27,2.86l-0.38,18.81
				c-0.02,0.91-1.07,1.12-2.34,0.46l0,0C680.67,696.54,679.64,695.25,679.66,694.34z"/>
			<path class="st5" d="M606.46,656.21l0.38-18.81c0.02-0.91,1.07-1.12,2.34-0.46l0,0c1.27,0.66,2.29,1.95,2.27,2.86l-0.38,18.81
				c-0.02,0.91-1.07,1.12-2.34,0.46l0,0C607.46,658.41,606.44,657.12,606.46,656.21z"/>
		</g>
	</g>
	<g class="st1">
		<polygon class="st11" points="532.92,866.94 530.02,1011.69 695.67,1097.98 698.58,953.24 		"/>
		<polygon class="st12" points="531.47,939.32 528.56,1084.06 694.22,1170.36 697.12,1025.61 		"/>
		<polygon class="st34" points="574.93,888.91 574.47,911.85 583.47,914.5 589.83,919.85 590.29,896.91 		"/>
		<polygon class="st35" points="645.86,998.91 645.4,1021.84 654.4,1024.49 660.76,1029.84 661.22,1006.91 		"/>
		<polygon class="st34" points="661.22,1006.91 661.68,983.97 652.68,981.33 646.32,975.97 645.86,998.91 		"/>
		<polygon class="st35" points="568.79,1105.02 569.25,1082.09 560.26,1079.44 553.9,1074.09 553.44,1097.02 		"/>
		<polygon class="st15" points="660.68,1143.31 661.52,1101.66 684.01,1113.38 683.17,1155.03 		"/>
	</g>
	<g class="st1">
		<polygon class="st36" points="695.4,1115.74 697.09,1031.87 793.07,1081.87 791.39,1165.74 		"/>
		<polygon class="st37" points="696.25,1073.81 697.93,989.93 793.92,1039.94 792.23,1123.81 		"/>
		<polygon class="st38" points="719.75,1128.37 720.01,1115.08 725.18,1118.96 728.91,1119.72 728.65,1133.01 		"/>
		<polygon class="st23" points="762.53,1108.33 762.79,1095.04 767.96,1098.92 771.69,1099.68 771.43,1112.97 		"/>
		<polygon class="st38" points="771.43,1112.97 771.16,1126.26 765.99,1122.39 762.26,1121.62 762.53,1108.33 		"/>
		<polygon class="st23" points="721.24,1002.08 720.98,1015.37 715.81,1011.49 712.08,1010.73 712.34,997.44 		"/>
	</g>
	<g class="st1">
		<polygon class="st36" points="527.84,1119.96 529.85,1020.01 644.24,1079.59 642.23,1179.55 		"/>
		<polygon class="st37" points="528.84,1069.98 530.85,970.03 645.24,1029.62 643.23,1129.57 		"/>
		<polygon class="st38" points="556.85,1135.01 557.17,1119.17 563.33,1123.79 567.77,1124.7 567.46,1140.53 		"/>
		<polygon class="st23" points="607.83,1111.13 608.15,1095.29 614.31,1099.91 618.76,1100.82 618.44,1116.65 		"/>
		<polygon class="st38" points="618.44,1116.65 618.12,1132.49 611.96,1127.87 607.52,1126.97 607.83,1111.13 		"/>
		<polygon class="st23" points="558.63,984.5 558.32,1000.34 552.16,995.72 547.71,994.81 548.03,978.98 		"/>
	</g>
	<g class="st1">
		<g class="st4">
			<polygon class="st39" points="877.21,1445.92 875.53,1529.49 971.17,1579.31 972.84,1495.74 			"/>
			<polygon class="st28" points="876.37,1487.71 874.69,1571.27 970.33,1621.09 972.01,1537.53 			"/>
			<polygon class="st40" points="901.46,1458.61 901.2,1471.85 906.39,1473.38 910.06,1476.47 910.33,1463.23 			"/>
			<polygon class="st24" points="942.41,1522.11 942.14,1535.35 947.34,1536.88 951.01,1539.97 951.28,1526.73 			"/>
			<polygon class="st40" points="951.28,1526.73 951.54,1513.49 946.35,1511.96 942.68,1508.87 942.41,1522.11 			"/>
			<polygon class="st24" points="897.92,1583.37 898.18,1570.13 892.99,1568.6 889.32,1565.51 889.05,1578.75 			"/>
			<polygon class="st41" points="950.97,1605.48 951.45,1581.43 964.44,1588.19 963.95,1612.24 			"/>
		</g>
		<path class="st23" d="M879.55,1533.97c1.79,2.98,5.71,9.67,4.75,9.38c-0.69-0.21-1.84-1.08-3-2.26c1.2,3.4,1.92,6.58-0.29,11.95
			c-0.44,1.08-1.56,1.66-3.16,1.51c-1.48-0.14-3.29-0.88-4.6-3.28c-2.62-4.8-0.97-2.92-4.8-9.69c-3.83-6.77-4.48-12.85-1.3-14.52
			l1.38-3.83l10.37,5.13C878.9,1528.35,879.14,1531.09,879.55,1533.97z"/>
		<path class="st23" d="M988.65,1472.44c0,0-14.81,5.25-4.35,23.23c0,0,10.37,6.99,17.52,9.78c0.88,0.34,1.73,0.68,2.54,1
			c8.05,3.17,12.61,5.13,12.61,5.13s0,0,0-0.01c0.21-0.55,6.78-18.71,5.84-19.06C1001.16,1484.54,988.65,1472.44,988.65,1472.44z"/>
		<path class="st42" d="M1018.11,1492.78c-4.47,0.27-12.55,4.01-13.74,13.67c8.05,3.17,12.61,5.13,12.61,5.13s0,0,0-0.01
			C1017.05,1511.03,1019.42,1492.69,1018.11,1492.78z"/>
		<path class="st23" d="M1018.8,1516.62c0,0-12.65-28.13,6.01-24.13c18.67,4,29.6,3.06,38.47,21.19
			c8.87,18.13,3.26,20.08-2.36,20.17C1055.32,1533.93,1022.58,1524.05,1018.8,1516.62z"/>
		<path class="st34" d="M1019.71,1491.32c-0.34-0.45-3.55-6.69,19.47-7.31c3.61-0.1,11.94,2.09,20.29,8.78
			c8.36,6.69,17.13,22.36,22.07,34.48c2.32,5.69,1.76,9.67,0.52,12.29c-1.53,3.23-7.37,2.55-12.84-1.44
			c-8.65-6.31-13.89-13.52-13.54-19.01c0.23-3.68-10.42-8.99-12.96-10.24c-2.54-1.25-4.7-2.51-3.55-6.69
			c0.98-3.58-6.49-5.17-9.86-5.55c-1.66-0.19-3.54-0.79-5.43-1.85C1022.43,1493.96,1020.87,1492.83,1019.71,1491.32z"/>
		<path class="st43" d="M526.21,1201.27l0.28-13.74c0.06-2.88,4.13-4,11.47-0.98c7.35,3.02,11.47-0.82,17.49,1.02
			c6.03,1.84,14.34,12.81,14.34,12.81l1.93,2.12l2.02,2.2l-3.77,9.03c0,0-3.6-1.61-8.19-3.82c-3.31-1.61-7.14-3.54-10.49-5.42
			c-7.99-4.49-16.65-7.04-18.3-2.73C531.32,1206.07,526.21,1201.27,526.21,1201.27z"/>
		<path class="st43" d="M524.29,1296.92l0.73-36.42c0.1-0.3,0.21-0.51,0.33-0.61c1.74-1.55,14.64,5.94,18.63,8.31
			c0.74,0.44,1.17,0.71,1.17,0.71s13.96,20.21,3.04,16.3c-0.34-0.12-0.68-0.23-1-0.33l-0.01,0c-10.23-3.08-15.06,4.45-16.46,9.51
			C529.64,1298.26,526.07,1297.55,524.29,1296.92z"/>
		<path class="st37" d="M815.94,1441.43c0,0-33.64-19.49-74.08-42.87c-54.93-31.76-122.41-70.68-135.2-77.72
			c-22.21-12.22-57.7-33.3-57.7-33.3s-8.32-10.48-4.52-20.79c0,0,50.96,15.59,104.71,40.46c0.88,0.41,1.77,0.82,2.66,1.24
			c54.71,25.59,169.9,81.07,169.9,81.07L815.94,1441.43z"/>
		<path class="st36" d="M818.32,1435.35c0,0-21.04-9.69-60.33-37.23c-28.83-20.21-108.85-90.91-108.85-90.91
			c0.88,0.41,1.77,0.82,2.66,1.24c54.71,25.59,169.9,81.07,169.9,81.07L818.32,1435.35z"/>
		<path class="st37" d="M818.32,1435.35c0,0-127.48-103.49-184.34-156.4c-56.86-52.91-72.71-68.45-72.71-68.45s7.6-9.39,12.62-7.98
			c0,0,110.49,66.46,137.15,95.95c15.07,16.66,60.61,50.74,76.59,59.55c15.99,8.81,47.59,27.95,47.59,27.95L818.32,1435.35z"/>
		<path class="st34" d="M820.71,1438.46c-0.33-5.36,3.6-58.05,7.8-55.87c14.61,7.56,38.29,17.67,67.06,29.89
			c5.36,2.28,10.68,4.66,15.93,7.1c13.68,6.36,26.84,13.18,38.72,20.11c22.06,12.87,39.73,28.91,47.9,40.13
			c1.03,1.45-2.55,2.96-5.82,6.92c-3.01,3.66-1.01,8.84,0.7,14.43l-7.38,2.16c-6.5,1.61-16.36,1.83-25.2-0.17
			C960.42,1503.15,820.74,1438.94,820.71,1438.46z"/>
		<path class="st37" d="M960.42,1503.15l-4.48-17.28l-76.13-60.23c-10.93-8.65-18.08-20-17.91-28.44l0,0l-37.82-17.9l-8.15,62.14
			L960.42,1503.15z"/>
		<path class="st34" d="M873.78,1529.71c5.97,3.58,7.13,1.96,7.13,1.96s14.28-36.63,16.19-39.36c1.9-2.73,50.33-8.47,50.33-8.47
			s20.05-1.38,16.56-13.44c-3.03-10.48-12.2-18.96-21.09-25.02c-10.59-7.21-21.62-9.67-27.79-6.3
			c-13.86,7.57-41.2,22.93-44.59,28.23c-7.56,11.78-4.79,56.08-4.79,56.08S869.09,1526.9,873.78,1529.71z"/>
		<path class="st36" d="M978.42,1482.08c4.51-1.13,16.94-5.82,16.94-5.82l2.76,3.54c0.4,1.7-11.75,6.91-16.52,8.26
			c-5.75,1.63-23.77,5.08-23.77,5.08l-1.89-7.28C955.95,1485.87,973.11,1483.42,978.42,1482.08z"/>
	</g>
	<g class="st1">
		<path class="st44" d="M1435.78,884.26l-80.27-41.81c-0.46-0.24-0.92-0.48-1.37-0.72c-8.43-4.45-15.07-8.48-15.05-9.17l0-0.19
			c0.01-0.64,5.72,1.8,13.27,5.6c0.63,0.32,1.28,0.65,1.94,0.99l0.14,0.07c0.38,0.19,0.76,0.39,1.13,0.59l80.19,41.77
			C1435.78,882.35,1435.78,883.31,1435.78,884.26z"/>
		<g class="st4">
			<path class="st45" d="M1366.05,846.5c0.53-26.62-30.7-64.7-69.77-85.06l-1.94,96.41C1333.41,878.2,1365.52,873.12,1366.05,846.5z
				"/>
			<path class="st46" d="M1365.11,849.89c0.45-1.17,0.7-2.46,0.73-3.9c0.35-17.34-30.94-47.85-69.89-68.14l-0.17,8.47
				C1331.5,804.93,1360.78,832.13,1365.11,849.89z"/>
		</g>
	</g>
	<polygon class="st10" points="833.08,529.9 797.8,516.53 796.77,505.19 831.26,510.96 	"/>
	<path class="st47" d="M516.96,1424.48L544.8,38.29c0.01-0.64,1.09-0.61,2.38,0.06l0,0c1.3,0.68,2.35,1.75,2.34,2.4l-27.84,1386.19
		c-0.01,0.64-1.08,0.61-2.38-0.06l0,0C517.99,1426.2,516.94,1425.12,516.96,1424.48z"/>
</g>
</svg>
