<?xml version="1.0" encoding="utf-8"?>
<!-- Generator: Adobe Illustrator 25.2.0, SVG Export Plug-In . SVG Version: 6.00 Build 0)  -->
<svg version="1.1" id="_x2018_лой_x5F_1" xmlns="http://www.w3.org/2000/svg" xmlns:xlink="http://www.w3.org/1999/xlink"
	 x="0px" y="0px" viewBox="0 0 3200 2000" style="enable-background:new 0 0 3200 2000;" xml:space="preserve">
<style type="text/css">
	.st0{fill:#EBF3FA;}
	.st1{fill:#C0D8FB;}
	.st2{fill:#DFEBFD;}
	.st3{fill:#B7D3F3;}
	.st4{fill:#82B378;}
	.st5{fill:#A8D29F;}
	.st6{fill:#8CB4F4;}
	.st7{fill:#99C3FF;}
	.st8{fill:#2A4E96;}
	.st9{fill:#C3DAFC;}
	.st10{fill:#D4E4F8;}
	.st11{fill:#9DC3F3;}
	.st12{fill:#E3F0FF;}
	.st13{fill:#FFFFFF;}
	.st14{fill:#B0D4FF;}
	.st15{fill:#D2E3FC;}
	.st16{fill:#AFCDFB;}
	.st17{fill:#AAC8E8;}
	.st18{fill:#9FC3F7;}
	.st19{fill:#8BB3EE;}
	.st20{fill:#77A4E5;}
	.st21{fill:#FFB27D;}
	.st22{fill:#ED975D;}
	.st23{fill:#2C3A64;}
	.st24{fill:#FF9E55;}
	.st25{fill:#ED823A;}
	.st26{fill:#A9453D;}
	.st27{fill:#9ABFE2;}
	.st28{fill:#BAD4F4;}
	.st29{fill:#C8DBF4;}
	.st30{fill:#618DC1;}
	.st31{fill:#DD732C;}
	.st32{fill:#D8702A;}
	.st33{fill:#C15E1B;}
	.st34{fill:#9FC1F4;}
	.st35{fill:#FF9843;}
	.st36{fill:#FFC48A;}
	.st37{fill:#2E3552;}
</style>
<g>
	<path class="st0" d="M2959.92,1636.1l-2700.29-4.48c0-25.3-292.47-884.04,143.18-1158.41C607.56,344.25,791.3,294.86,953.58,291.25
		c1.97-0.06,3.95-0.09,5.91-0.11c400.25-6.23,669.15,265.34,800.37,302.97c465.1,133.37,643.18-175.18,1006.34-73.2
		C3176.3,636.05,3148.31,1347.58,2959.92,1636.1z"/>
	<g>
		<path class="st1" d="M2385.89,867.88h-131.48c-6.04,0-10.97-4.94-10.97-10.97V730c0-6.04,4.94-10.97,10.97-10.97h131.48
			c6.04,0,10.97,4.94,10.97,10.97v126.9C2396.86,862.94,2391.92,867.88,2385.89,867.88z"/>
		<path class="st2" d="M2380.19,861.43H2260.1c-5.51,0-10.02-4.51-10.02-10.02V735.5c0-5.51,4.51-10.02,10.02-10.02h120.09
			c5.51,0,10.02,4.51,10.02,10.02v115.91C2390.22,856.92,2385.71,861.43,2380.19,861.43z"/>
		<g>
			<g>
				<path class="st3" d="M2316.97,739.06c0-1.75,1.42-3.18,3.18-3.18c1.75,0,3.18,1.42,3.18,3.18c0,1.76-1.42,3.18-3.18,3.18
					C2318.39,742.24,2316.97,740.82,2316.97,739.06z"/>
				<path class="st3" d="M2342.62,743.55c0.85-1.53,2.79-2.09,4.32-1.23c1.53,0.85,2.09,2.79,1.23,4.32
					c-0.85,1.53-2.79,2.09-4.32,1.23C2342.32,747.02,2341.76,745.09,2342.62,743.55z"/>
				<path class="st3" d="M2364.59,761.01c1.48-0.95,3.44-0.53,4.39,0.95c0.95,1.48,0.53,3.44-0.95,4.39
					c-1.48,0.95-3.44,0.53-4.39-0.95C2362.69,763.93,2363.11,761.96,2364.59,761.01z"/>
				<path class="st3" d="M2375.47,788.03c1.76,0,3.18,1.42,3.18,3.18c0,1.76-1.42,3.18-3.18,3.18c-1.75,0-3.18-1.42-3.18-3.18
					C2372.29,789.45,2373.71,788.03,2375.47,788.03z"/>
				<path class="st3" d="M2369.91,819.38c1.24,1.24,1.24,3.25,0,4.49c-1.24,1.24-3.25,1.24-4.49,0c-1.24-1.24-1.24-3.25,0-4.49
					S2368.67,818.14,2369.91,819.38z"/>
				<path class="st3" d="M2349.96,839.39c1.24,1.24,1.24,3.25,0,4.49c-1.24,1.24-3.25,1.24-4.5,0c-1.24-1.24-1.24-3.25,0-4.49
					C2346.7,838.15,2348.71,838.15,2349.96,839.39z"/>
				<path class="st3" d="M2316.97,849.7c0-1.76,1.42-3.18,3.18-3.18c1.75,0,3.18,1.42,3.18,3.18c0,1.76-1.42,3.18-3.18,3.18
					C2318.39,852.88,2316.97,851.46,2316.97,849.7z"/>
			</g>
			<g>
				<path class="st3" d="M2297.58,743.55c-0.85-1.53-2.79-2.09-4.32-1.23c-1.53,0.85-2.09,2.79-1.23,4.32s2.79,2.09,4.32,1.23
					C2297.88,747.02,2298.43,745.09,2297.58,743.55z"/>
				<path class="st3" d="M2275.61,761.01c-1.47-0.95-3.44-0.53-4.39,0.95c-0.95,1.48-0.53,3.44,0.95,4.39
					c1.47,0.95,3.44,0.53,4.39-0.95C2277.51,763.93,2277.08,761.96,2275.61,761.01z"/>
				<path class="st3" d="M2264.73,788.03c-1.76,0-3.18,1.42-3.18,3.18c0,1.76,1.42,3.18,3.18,3.18c1.75,0,3.18-1.42,3.18-3.18
					C2267.9,789.45,2266.48,788.03,2264.73,788.03z"/>
				<path class="st3" d="M2270.28,819.38c-1.24,1.24-1.24,3.25,0,4.49c1.24,1.24,3.25,1.24,4.5,0c1.24-1.24,1.24-3.25,0-4.49
					S2271.52,818.14,2270.28,819.38z"/>
				<path class="st3" d="M2290.24,839.39c-1.24,1.24-1.24,3.25,0,4.49c1.24,1.24,3.25,1.24,4.5,0c1.24-1.24,1.24-3.25,0-4.49
					C2293.49,838.15,2291.48,838.15,2290.24,839.39z"/>
			</g>
		</g>
		<g>
			<path class="st3" d="M2319.29,791.2c0-1.76,1.42-3.18,3.18-3.18c1.75,0,3.18,1.42,3.18,3.18c0,1.76-1.42,3.18-3.18,3.18
				C2320.71,794.38,2319.29,792.96,2319.29,791.2z"/>
			<g>
				<rect x="2322.04" y="751.5" class="st3" width="0.87" height="39.7"/>
			</g>
			<g>
				
					<rect x="2319.21" y="781.58" transform="matrix(0.7864 -0.6177 0.6177 0.7864 14.5829 1607.95)" class="st3" width="26.76" height="2.6"/>
			</g>
		</g>
	</g>
	<g>
		<g>
			<path class="st4" d="M2088.96,1135.09c0,0,16.9-19.71,1.04-32.24c0,0-11.58-7.01-21.03-6.44c0,0,13.38,22.44,9.05,24.67
				c-4.33,2.23-13.11-26.08-13.11-26.08s-26.36-2.56-34.83,1.52c0,0,22.53,18.44,17.79,19.54s-29.08-17-29.08-17
				s-24.53,4.17-23.22,19.14s9.76,19.58,13.47,19.19c3.72-0.4,25.45-8.69,25.92-5.65c0.47,3.04-12.61,12.99-21.77,13.46
				c0,0,17.29,19.07,28.79,13.57c11.49-5.5,12.47-14.23,19.64-17.5s13.28-3.26,10.32,0.07c-2.96,3.34-15.92,6.58-20.02,13.83
				c-4.1,7.25-7.77,12.14,4.12,10.35c11.89-1.79,31.22-10.49,32.07-20.45S2088.96,1135.09,2088.96,1135.09z"/>
			<g>
				<path class="st4" d="M2007.62,1118.61c0,0,66.63-2.57,81.34,16.49c0,0,3.25,9.75,13.27,18.62l1.56,4.25
					c0,0-11.54-12.17-15.68-12.91C2088.11,1145.06,2094.57,1121.45,2007.62,1118.61z"/>
				<path class="st4" d="M2102.23,1153.71c0,0,14.3,10.58,15.29,29.47l-2.6,0.23c0,0-4.57-19.54-12.82-27.18
					C2093.85,1148.6,2102.23,1153.71,2102.23,1153.71z"/>
			</g>
		</g>
		<g>
			<path class="st5" d="M2148.04,1110.3c0,0-26.88-15.05-14.34-35.48c0,0,10.04-12.54,20.79-15.77c0,0-5.73,30.46,0,31.18
				s3.94-34.41,3.94-34.41s28.31-13.62,39.42-12.54c0,0-17.56,29.75-11.83,29.03c5.74-0.72,25.45-30.82,25.45-30.82
				s29.03-5.38,33.69,11.83c4.66,17.2-2.87,25.81-7.17,26.88c-4.3,1.08-31.9,0.72-31.18,4.3s19.35,9.32,29.75,6.09
				c0,0-11.47,28.31-26.52,26.88s-19.71-10.75-29.03-11.47c-9.32-0.72-16.13,1.79-11.47,4.3s20.43,0.82,27.96,7.22
				s13.62,10.34-0.36,13.21c-13.98,2.87-39.07,1.08-44.08-9.68S2148.04,1110.3,2148.04,1110.3z"/>
			<g>
				<path class="st4" d="M2231.91,1058.69c0,0-75.26,24.37-83.87,51.61c0,0,0.36,12.19-7.17,26.16v5.38c0,0,7.88-18.28,12.19-20.79
					C2153.06,1121.05,2136.22,1097.4,2231.91,1058.69z"/>
				<path class="st4" d="M2140.88,1136.46c0,0-11.61,17.63-4.99,39.08l2.99-0.8c0,0-2.9-23.63,3.17-35.52
					C2148.12,1127.34,2140.88,1136.46,2140.88,1136.46z"/>
			</g>
		</g>
		<g>
			<path class="st5" d="M2105.28,1089.54c0,0,35.43-19.84,18.9-46.77c0,0-13.23-16.54-27.4-20.79c0,0,7.56,40.16,0,41.1
				c-7.56,0.95-5.2-45.35-5.2-45.35s-37.32-17.95-51.97-16.54c0,0,23.15,39.21,15.59,38.27c-7.56-0.95-33.54-40.63-33.54-40.63
				s-38.27-7.09-44.41,15.59c-6.14,22.68,3.78,34.02,9.45,35.43c5.67,1.42,42.05,0.95,41.1,5.67c-0.95,4.72-25.51,12.28-39.21,8.03
				c0,0,15.12,37.32,34.96,35.43s25.98-14.17,38.27-15.12c12.28-0.94,21.26,2.36,15.12,5.67c-6.14,3.31-26.93,1.08-36.85,9.52
				c-9.92,8.43-17.95,13.63,0.47,17.41s51.5,1.42,58.11-12.76C2105.28,1089.54,2105.28,1089.54,2105.28,1089.54z"/>
			<g>
				<path class="st4" d="M1994.73,1021.51c0,0,99.21,32.13,110.55,68.03c0,0-0.47,16.06,9.45,34.49v7.09c0,0-10.39-24.09-16.06-27.4
					C2098.67,1103.71,2120.87,1072.53,1994.73,1021.51z"/>
				<path class="st4" d="M2114.73,1124.03c0,0,15.3,23.23,6.58,51.52l-3.94-1.06c0,0,3.82-31.15-4.18-46.82
					C2105.18,1112,2114.73,1124.03,2114.73,1124.03z"/>
			</g>
		</g>
		<path class="st6" d="M2106.47,1236.88c-38.33,0-69.41-31.08-69.41-69.41h138.82C2175.88,1205.8,2144.81,1236.88,2106.47,1236.88z"
			/>
		<path class="st7" d="M2126.97,1236.34c-2.82,0.35-5.7,0.53-8.62,0.53c-38.33,0-69.4-31.08-69.4-69.41h17.24
			C2066.19,1202.88,2092.71,1232.1,2126.97,1236.34z"/>
		<path class="st6" d="M2036.11,1240.41h140.73l0,0c0-4.73-3.83-8.56-8.56-8.56h-123.61
			C2039.94,1231.84,2036.11,1235.68,2036.11,1240.41L2036.11,1240.41z"/>
		
			<rect x="2035.49" y="1167.47" transform="matrix(-1 -1.224647e-16 1.224647e-16 -1 4213.6494 2337.0645)" class="st7" width="142.68" height="2.13"/>
	</g>
	<polygon class="st8" points="685.16,1215.06 695.5,1267.9 673.2,1269.77 648.05,1218.34 	"/>
	<polygon class="st8" points="1400.9,1124.68 1411.24,1177.52 1388.94,1179.39 1363.79,1127.96 	"/>
	<g>
		
			<rect x="615.69" y="1503.87" transform="matrix(-1 -1.224647e-16 1.224647e-16 -1 1388.7705 3137.5137)" class="st9" width="157.38" height="129.77"/>
		
			<rect x="694.39" y="1503.87" transform="matrix(-1 -1.224647e-16 1.224647e-16 -1 1546.1543 3137.5137)" class="st10" width="157.38" height="129.77"/>
		<polygon class="st11" points="615.79,1600.73 640.72,1600.73 638.53,1593.71 640.72,1588.7 615.79,1588.7 		"/>
		<polygon class="st12" points="694.39,1544.03 719.32,1544.03 717.13,1537.01 719.32,1532 694.39,1532 		"/>
		<polygon class="st11" points="694.39,1532 669.45,1532 671.64,1539.02 669.45,1544.03 694.39,1544.03 		"/>
		<polygon class="st12" points="851.77,1602.13 826.83,1602.13 829.03,1609.14 826.83,1614.16 851.77,1614.16 		"/>
		<rect x="796.17" y="1512.67" class="st13" width="45.29" height="17.62"/>
	</g>
	<g>
		
			<rect x="868.63" y="1503.87" transform="matrix(-1 -1.224647e-16 1.224647e-16 -1 1894.6504 3137.5137)" class="st9" width="157.38" height="129.77"/>
		
			<rect x="947.33" y="1503.87" transform="matrix(-1 -1.224647e-16 1.224647e-16 -1 2052.0342 3137.5137)" class="st10" width="157.38" height="129.77"/>
		<polygon class="st11" points="868.73,1600.73 893.66,1600.73 891.47,1593.71 893.66,1588.7 868.73,1588.7 		"/>
		<polygon class="st12" points="947.33,1544.03 972.26,1544.03 970.07,1537.01 972.26,1532 947.33,1532 		"/>
		<polygon class="st11" points="947.33,1532 922.39,1532 924.58,1539.02 922.39,1544.03 947.33,1544.03 		"/>
		<polygon class="st12" points="1104.71,1602.13 1079.77,1602.13 1081.97,1609.14 1079.77,1614.16 1104.71,1614.16 		"/>
		<rect x="1049.11" y="1512.67" class="st13" width="45.29" height="17.62"/>
	</g>
	<g>
		
			<rect x="750.69" y="1375.6" transform="matrix(-1 -1.224647e-16 1.224647e-16 -1 1658.7549 2880.9824)" class="st9" width="157.38" height="129.77"/>
		
			<rect x="829.38" y="1375.6" transform="matrix(-1 -1.224647e-16 1.224647e-16 -1 1816.1385 2880.9824)" class="st10" width="157.38" height="129.77"/>
		<polygon class="st11" points="750.78,1472.47 775.72,1472.47 773.52,1465.45 775.72,1460.43 750.78,1460.43 		"/>
		<polygon class="st12" points="829.38,1415.77 854.32,1415.77 852.12,1408.75 854.32,1403.73 829.38,1403.73 		"/>
		<polygon class="st11" points="829.38,1403.73 804.44,1403.73 806.64,1410.75 804.44,1415.77 829.38,1415.77 		"/>
		<polygon class="st12" points="986.76,1473.86 961.83,1473.86 964.02,1480.88 961.83,1485.89 986.76,1485.89 		"/>
		<rect x="931.17" y="1384.4" class="st13" width="45.29" height="17.62"/>
	</g>
	<g>
		<g>
			<path class="st14" d="M1340.99,918.33c-2.11,6.5-28.25,15.15-67.42,24.54c-6.9,1.66-14.2,3.34-21.86,5.03
				c-133.56,29.58-502.91,78.09-526.21,76.17c-32.2-2.65-127.19-292.89-127.19-292.89s184.44-23.05,331.02-40.44
				c50.15-5.94,224.62-26.13,257-29.65C1236.48,655.66,1344.4,907.81,1340.99,918.33z"/>
			<path class="st15" d="M1285.71,885.75c0,0-78.81-197.38-84.77-214.04c-2.65-7.43-8.57-9.57-14.31-9.67
				c9.87-1.98,17.12-2.83,17.12-2.83c19.63-2.13,38.41,8.35,46.71,26.05c18.09,38.62,53.75,112.71,87.55,185.26
				C1336.71,870.63,1285.71,885.75,1285.71,885.75z"/>
			<path class="st15" d="M1649.09,1028.65c-3.51,52.04-59.13,90.97-119.81,97.56l-120.18,13.04l-22.69-295.99
				c0,0,110.95-47.48,143.09-19.77c28.16,24.27,108.19,123.78,118.66,186.68C1649.21,1016.49,1649.5,1022.66,1649.09,1028.65z"/>
			<path class="st16" d="M1649.09,1028.65c-3.51,52.04-59.13,90.97-119.81,97.56l-58.95,6.4
				C1507.09,1104.88,1534.79,1028.7,1649.09,1028.65z"/>
			<path class="st17" d="M1310.25,880.77c0,0,154.22-90.47,190.09-46.2c19.05,23.51,74.86,119.49,85.04,182.42
				c9.89,61.15-46.21,108.15-108.44,114.9l-110.52,11.99L1310.25,880.77z"/>
			<path class="st18" d="M1547.35,1073.97c-1.65,1.54-3.35,3.06-5.09,4.57c-21.66,18.71-50.81,34.88-84.88,46.65
				c-25.75,8.89-54.3,15.26-84.57,18.29l-52.55,5.72l-0.71,0.08l-248.75,27.06l-142.59,15.51l-2.11,0.23l-0.02-0.06l-7.58-23.7
				l-71.68-239.57c0,0,623.41-80.99,677.16-59.34c24.96,10.05,44.02,60.85,57.69,117.61
				C1588.96,1017.26,1575.34,1047.85,1547.35,1073.97z"/>
			<path class="st19" d="M1547.35,1073.97c-1.65,1.54-3.35,3.06-5.09,4.57c-21.66,18.71-50.81,34.88-84.88,46.65
				c-25.75,8.89-54.3,15.26-84.57,18.29l-52.55,5.72l-0.71,0.08l-248.75,27.06l-142.59,15.51l-2.13,0.17l-7.58-23.7
				c85.68-25.3,204.87-54.5,331.17-66.94C1370.28,1089.5,1471.15,1078.4,1547.35,1073.97z"/>
			<path class="st15" d="M1040.61,1097.39c-4.37,50.58-54.44,87.76-109.26,93.71l-110.52,11.99l-23.65-298.53
				c0,0,101.93-43.86,131.76-15.9c26.14,24.5,100.67,124.6,110.85,187.53C1040.97,1083.48,1041.21,1090.56,1040.61,1097.39z"/>
			<path class="st16" d="M1040.61,1097.39c-4.37,50.58-54.44,87.76-109.26,93.71l-88.44,9.6
				C881.62,1171.49,929.96,1097.16,1040.61,1097.39z"/>
			<path class="st20" d="M977.59,1106.32c-2.27,20.03-11.7,37.88-25.68,52.43l-0.01,0.01c-8.34,8.68-18.3,16.19-29.34,22.28
				c-13.56,7.49-28.74,12.85-44.54,15.62c-0.82,0.14-1.64,0.28-2.46,0.41c-0.65,0.1-1.31,0.2-1.97,0.29
				c-1.09,0.16-2.19,0.31-3.28,0.44c-0.58,0.07-1.16,0.14-1.75,0.2L758.05,1210l-0.01-0.05c-2.09,0.25-4.23,0.51-6.37,0.76
				c-11.36,1.36-23.24,2.76-34.25,4.04c-1.85,0.22-3.66,0.43-5.46,0.63c-0.67,0.08-1.34,0.15-1.99,0.22
				c-10.89,1.25-20.52,2.33-27.39,3.03c-9.67,0.99-18.84,1.38-27.53,1.11c-11.22-0.34-21.63-1.76-31.3-4.37
				c-1.73-0.46-3.43-0.96-5.1-1.51c-1.71-0.55-3.4-1.14-5.05-1.77c-4.42-1.67-8.69-3.64-12.77-5.9
				c-10.55-5.83-19.98-13.64-28.36-23.6c-5.83-6.93-11.16-14.9-16.01-23.99c-5.94-11.11-11.15-23.88-15.7-38.43
				c-0.12-0.37-0.24-0.74-0.35-1.11c-2.07-6.69-3.99-13.74-5.79-21.18c-0.81-3.39-1.6-6.85-2.36-10.4
				c-2.69-12.52-5.04-26.05-7.07-40.61c-0.18-1.27-0.35-2.55-0.52-3.83c-0.04-0.29-0.08-0.57-0.11-0.86
				c-1.53-11.58-2.87-23.8-4.03-36.69c-0.51-5.65-0.98-11.42-1.41-17.33c-0.2-2.69-0.39-5.4-0.57-8.13
				c-0.92-13.74-1.66-28.16-2.23-43.28c-0.26-6.79-0.48-13.72-0.67-20.79c-0.79-29.15-0.99-60.73-0.71-94.87
				c0.32-38.76,2.58-66.07,9.42-72.98c10.09-10.19,32.79-16.31,48.71-19.5l0.01,0c9.87-1.98,17.11-2.84,17.11-2.84
				c0.36-0.04,0.71-0.07,1.07-0.1c0.25-0.02,0.51-0.04,0.76-0.06c0.61-0.04,1.23-0.07,1.84-0.09c0.34-0.01,0.69-0.02,1.03-0.02
				c0.23-0.01,0.45-0.01,0.68,0c0.34,0,0.68,0.01,1.02,0.02c0.61,0.01,1.21,0.05,1.81,0.09c0.41,0.03,0.83,0.06,1.24,0.11
				c0.03,0,0.07,0,0.11,0.01c0.3,0.03,0.6,0.06,0.9,0.1c0.57,0.06,1.14,0.14,1.7,0.23c0.39,0.06,0.77,0.13,1.15,0.2
				c0.27,0.05,0.53,0.1,0.8,0.15c3.18,0.64,6.26,1.6,9.21,2.87c10.11,4.35,18.55,12.26,23.41,22.65
				c16.9,36.16,47.09,100.81,78.54,168.45c0.15,0.34,0.32,0.68,0.47,1.02c1.81,3.88,3.62,7.79,5.43,11.69
				c0.18,0.39,0.36,0.79,0.55,1.18c0.09,0.2,0.19,0.4,0.28,0.6c1.29-0.67,2.62-1.38,4-2.09c0.04-0.03,0.09-0.05,0.14-0.08
				c5.47-2.85,11.67-6,18.38-9.24l0.01,0c3.48-1.68,7.08-3.4,10.81-5.12c10.51-4.86,21.88-9.78,33.48-14.21
				c5.14-1.97,10.33-3.85,15.51-5.58c6.64-2.22,13.26-4.21,19.74-5.86c0.22-0.06,0.4-0.11,0.56-0.15c0.77-0.19,1.53-0.38,2.29-0.56
				c4.58-1.1,9.07-2.03,13.44-2.74l0.01,0c22.35-3.65,41.39-1.72,51.34,10.6c3.72,4.61,8.84,11.98,14.76,21.34
				c12.22,19.35,27.82,47.18,41.37,76.53c13.46,29.15,24.89,59.79,28.98,85.11C978.3,1090.92,978.46,1098.77,977.59,1106.32z"/>
			<path class="st15" d="M672.15,952.34c0,0-78.81-197.38-84.77-214.04c-2.65-7.43-8.57-9.57-14.31-9.67
				c9.87-1.98,17.12-2.83,17.12-2.83c19.63-2.13,38.41,8.35,46.71,26.05c18.09,38.62,51.41,109.83,85.22,182.38
				C720.81,934.34,672.15,952.34,672.15,952.34z"/>
		</g>
		<path class="st21" d="M1490.77,1139.25c-0.61-0.36-19.61,4.51-24.92,4.63c-4.65,0.11-22.12-3.84-24.09-8.17
			c-0.28-0.62,20.21-1.87,23.44-3.89c1.61-1.01,8.41-5.38,14.12-4.97c5.72,0.41,8.78-0.03,8.78-0.03L1490.77,1139.25z"/>
		<g>
			<path class="st21" d="M500.45,919.15c0,0,18.36,29.95,48.55,23.16c0,0,8.38-13.9,10.12-24.82c0.21-1.34,0.43-2.65,0.64-3.88
				c2.02-12.29,3.48-19.13,3.48-19.13s-0.01,0-0.03-0.01c-1.21-0.74-40.87-24.5-41.05-23.06
				C517.84,904.81,500.45,919.15,500.45,919.15z"/>
			<path class="st22" d="M525.2,879.99c2.93,8.18,14.68,25.08,34.56,33.62c2.02-12.29,3.48-19.13,3.48-19.13s-0.01,0-0.03-0.01
				C562.09,893.97,524.33,877.58,525.2,879.99z"/>
			<path class="st21" d="M571.83,894.53c0,0-49.24,3.97-51.25-26.73c-2-30.71-9.71-50.87,21.65-54.71
				c31.36-3.84,38.24,7.48,41.4,17.57C586.79,840.75,584.59,892.71,571.83,894.53z"/>
			<path class="st8" d="M521.44,876.14c-0.71,0.32-11.42,1.91-24.95-39.63c-2.12-6.52-2.21-19.94,6.64-30.45
				c8.85-10.51,35.37-15.81,56.85-16.6c21.49-0.8,24.72,11.72,27.85,24.27c3.29,13.18,16.65,25.65,16.65,25.65
				c-19.54,7.33-39.05-10.35-46.93-9.12c-7.87,1.23-12.32,12.67-13.46,16.38c-1.14,3.71-2.48,6.74-11.42,1.91
				c-8.94-4.82-6.3,12.75-5.28,16.18C527.4,864.75,527.39,873.49,521.44,876.14z"/>
		</g>
		<g>
			<path class="st23" d="M548.96,1636.45h-77.19c-0.74-0.14-1.3-0.31-1.64-0.48c-5.15-2.58-3.54-22.31-2.92-28.41
				c0.12-1.13,0.2-1.79,0.2-1.79s27.14-21.71,30.88-5.09c0.12,0.52,0.25,1.03,0.4,1.53v0.01c4.71,15.55,25.78,22.62,37.94,24.59
				C545.93,1628.33,548.34,1633.74,548.96,1636.45z"/>
			<path class="st23" d="M346.23,1636.45h-29.12c-6.1,0-12.89-6.11-14.59-17.3c-1.7-11.2-14.25-17.3-16.96-26.46
				c-2.72-9.16,11.2-22.06,11.2-22.06l2.33-2.99l2.42-3.12l23.07,5.42c0,0,0.57,5.49,0.93,12.49c0.25,5.05,0.38,10.89,0.09,16.01
				c-0.68,12.22,3.42,25.37,14.27,27.75C350.72,1628.57,346.23,1636.45,346.23,1636.45z"/>
			<path class="st24" d="M533.4,1191.3c0,0-4.12,51.43-8.97,113.26c-6.59,83.98-14.5,187.14-15.29,206.69
				c-1.35,33.94-6.79,88.22-6.79,88.22s-12.89,12.9-38.68,7.46c0,0-22.98-77.49-29.55-159.48c-0.1-1.34-0.2-2.7-0.31-4.05
				c-6.11-83.46-15.6-259.22-15.6-259.22L533.4,1191.3z"/>
			<path class="st25" d="M512.59,1201.46c0,0,8.12,18.51-6.72,78.72c-10.89,44.18-71.74,167.27-71.74,167.27
				c-0.1-1.34-0.2-2.7-0.31-4.05c-6.11-83.46-15.6-259.22-15.6-259.22L512.59,1201.46z"/>
			<path class="st24" d="M518.04,1187.88c0,0-77.77,195.8-126.63,283.34c-48.86,87.54-64.13,111.96-64.13,111.96
				s-27.99-11.2-30.54-18.83c0,0,18.68-168.99,51.4-210.19c18.49-23.28,40.21-93.13,41.22-117.56c1.02-24.43,6.62-72.78,6.62-72.78
				L518.04,1187.88z"/>
			<path class="st8" d="M522,1196.73c-10.49-2.96-117.47-44.89-115.38-50.95c7.25-21.09,14.74-56.71,23.69-100.03
				c1.69-8.07,3.57-16,5.62-23.77c5.36-20.24,11.91-39.23,19.36-55.86c13.84-30.89,36.32-51.85,54.3-59.01
				c2.34-0.88,7.25,6.52,16.88,14.98c8.89,7.8,18.13,7.66,28.35,8.3l8.25,14.62c6.68,12.68,12.37,30.45,13.12,44.92
				C576.18,989.93,522.94,1196.99,522,1196.73z"/>
			<path class="st24" d="M576.18,989.93l-32.01-3.45l-79.25,96.14c-11.38,13.81-30.16,19.06-47.05,13.17l0,0l-21.87,68.04
				l134.47,43.41L576.18,989.93z"/>
			<path class="st25" d="M524.64,943.81c-4.66-8.81-20.62-34.12-20.62-34.12s1.98-1.07,2.67-1.38c0.71-0.33,2.9-1.2,2.9-1.2
				c3.17,0.41,20.02,25.56,25.26,34.99c6.31,11.36,21.47,45.71,21.47,45.71l-12.14-1.33C544.17,986.48,530.12,954.18,524.64,943.81z
				"/>
		</g>
		<g>
			<path class="st21" d="M569.81,1188.81c0,0,7.98,4.21,12.73,4c4.74-0.21,8.08,0.54,15.11,2.04c7.04,1.5,7.33,3.88,2.1,5.05
				c-5.23,1.17-11.15-1.07-8.49,1.75c2.66,2.82,27.79,5.24,27.48,8.44c-0.31,3.2-23.16,12.47-31.53,9.56
				c-8.37-2.91-27.92-20.03-27.92-20.03L569.81,1188.81z"/>
			<path class="st8" d="M568.68,1199.11c7.25-5.64,5.23-10.19,5.23-10.19s-49.54-80.68-52.96-88.24c-3.42-7.56,3.92-105,3.92-105
				s4.51-38.86-14.48-50.39c-16.5-10.02-21.94-18.23-33.81-10.91c-14.14,8.72-26.29,41.26-23.32,57.61
				c6.67,36.69,15.28,106.23,22,120.33c14.96,31.38,81.43,92.18,81.43,92.18S562.98,1203.54,568.68,1199.11z"/>
		</g>
		<g>
			<path class="st21" d="M1702.55,926.05c0,0-27.2,22.23-53.47,5.87c0,0-3.33-15.89-1.38-26.77c0.24-1.34,0.47-2.64,0.68-3.88
				c2.14-12.27,3.02-19.21,3.02-19.21s0.01,0,0.03,0c1.39-0.3,46.66-9.67,46.35-8.25C1690.85,906.78,1702.55,926.05,1702.55,926.05z
				"/>
			<path class="st22" d="M1692.08,880.91c-5.46,6.75-22.13,18.84-43.7,20.36c2.14-12.27,3.02-19.21,3.02-19.21s0.01,0,0.03,0
				C1652.64,881.96,1693.7,878.93,1692.08,880.91z"/>
			<path class="st21" d="M1642.83,879.14c0,0,45.19,19.98,57.19-8.35c12.01-28.33,25.92-44.83-2.42-58.79
				c-28.34-13.95-38.57-5.53-44.87,2.95C1646.42,823.43,1631.38,873.21,1642.83,879.14z"/>
			<path class="st26" d="M1696.89,878.53c0.57,0.53,10.15,5.57,36.61-29.2c4.15-5.46,8.66-18.1,3.77-30.94
				c-4.89-12.84-28.18-26.57-48.21-34.41c-20.03-7.83-27.2,2.92-34.29,13.74c-7.44,11.36-24.17,18.73-24.17,18.73
				c16.03,13.36,40.28,3.1,47.31,6.85c7.03,3.75,7.46,16.02,7.31,19.9c-0.15,3.88,0.13,7.18,10.15,5.57
				c10.03-1.61,1.75,14.11-0.35,17.02C1695.02,865.8,1692.15,874.06,1696.89,878.53z"/>
			<path class="st23" d="M1766.04,1633.16h29.12c6.1,0,12.89-6.11,14.59-17.3c1.7-11.2,14.25-17.3,16.96-26.46
				s-11.2-22.06-11.2-22.06l-2.33-2.99l-2.42-3.12l-23.07,5.42c0,0-0.57,5.49-0.93,12.49c-0.25,5.05-0.38,10.89-0.09,16.01
				c0.68,12.22-3.42,25.37-14.27,27.75C1761.55,1625.28,1766.04,1633.16,1766.04,1633.16z"/>
			<path class="st23" d="M1563.31,1633.16h77.19c0.74-0.14,1.3-0.31,1.64-0.48c5.15-2.58,3.54-22.31,2.92-28.41
				c-0.12-1.13-0.2-1.79-0.2-1.79s-27.14-21.71-30.88-5.09c-0.12,0.52-0.25,1.03-0.4,1.53v0.01c-4.71,15.55-25.78,22.62-37.94,24.59
				C1566.35,1625.03,1563.93,1630.45,1563.31,1633.16z"/>
			<path class="st24" d="M1578.87,1188.01c0,0,4.12,51.43,8.97,113.26c6.59,83.98,14.51,187.14,15.29,206.69
				c1.35,33.94,6.79,88.22,6.79,88.22s12.89,12.9,38.68,7.46c0,0,22.98-77.49,29.55-159.48c0.1-1.34,0.2-2.7,0.31-4.05
				c6.11-83.46,15.6-259.22,15.6-259.22L1578.87,1188.01z"/>
			<path class="st25" d="M1594.23,1184.58c0,0-2.67,32.09,12.17,92.3c10.89,44.18,71.74,167.27,71.74,167.27
				c0.1-1.34,0.2-2.7,0.31-4.05c6.11-83.46,15.6-259.22,15.6-259.22L1594.23,1184.58z"/>
			<path class="st24" d="M1594.23,1184.58c0,0,77.77,195.8,126.63,283.34s64.12,111.96,64.12,111.96s27.99-11.2,30.54-18.83
				c0,0-18.68-168.99-51.4-210.19c-18.49-23.28-40.21-93.13-41.22-117.56c-1.02-24.43-6.62-72.78-6.62-72.78L1594.23,1184.58z"/>
			<path class="st8" d="M1590.32,1180.88c10.88,0.66,125.7-3.68,125.73-10.1c0.1-22.3,4.77-58.4,10.59-102.25
				c1.07-8.17,1.9-16.28,2.53-24.29c1.61-20.87,1.68-40.97,0.12-59.12c-2.89-33.73-17.21-60.93-31.83-73.61
				c-1.92-1.6-9,3.77-20.87,8.58c-10.96,4.44-19.64,1.26-29.5-1.5l-12.6,11.09c-10.49,9.77-21.71,24.67-27.19,38.09
				C1607.29,967.77,1589.35,1180.82,1590.32,1180.88z"/>
			<path class="st24" d="M1607.29,967.77l31.36,7.29l43.16,116.88c6.2,16.78,22.2,27.93,40.09,27.93l0,0l-3.78,57.7l-139.24,10.43
				L1607.29,967.77z"/>
			<path class="st8" d="M1483.99,1131.85c-2.24-8.91,2.17-11.24,2.17-11.24s88.74-33,96.09-36.84s61.63-85.09,61.63-85.09
				s20.41-33.38,42.46-30.75c19.17,2.28,28.81,15.2,33.64,28.27c5.76,15.58,1.23,33.11-11.18,44.15
				c-27.87,24.78-83.77,73.79-97.75,80.75c-31.12,15.49-120.94,22.39-120.94,22.39S1485.75,1138.85,1483.99,1131.85z"/>
			<path class="st25" d="M1671.15,941.21c7.3-6.78,30.71-25.42,30.71-25.42s-1.84-1.98-2.51-2.64c-0.43-0.42-1.9-1.64-1.9-1.64
				c-3.12-0.66-27.32,17.54-35.38,24.72c-9.7,8.64-35.77,35.96-35.77,35.96l12.35,2.87C1638.65,975.07,1662.55,949.2,1671.15,941.21
				z"/>
		</g>
	</g>
	<g>
		<path class="st27" d="M1496.58,1269.62v9.24c0,3.24-1.05,5.88-2.33,5.88h-337.19c-1.28,0-2.33-2.64-2.33-5.88v-9.24
			c0-3.23,1.05-5.88,2.33-5.88h337.19C1495.53,1263.74,1496.58,1266.39,1496.58,1269.62z"/>
		<path class="st28" d="M1496.58,1269.62v9.24c0,3.24-0.96,5.88-2.13,5.88h-267.7c-1.17,0-2.13-2.64-2.13-5.88v-9.24
			c0-3.23,0.96-5.88,2.13-5.88h267.7C1495.62,1263.74,1496.58,1266.39,1496.58,1269.62z"/>
		<rect x="1171.85" y="1284.74" class="st29" width="239.39" height="348.92"/>
		<rect x="1238.93" y="1284.74" class="st2" width="239.39" height="348.92"/>
		<g>
			<g>
				<path class="st3" d="M1465.46,1614.39H1251.8v-319.8h213.66V1614.39z M1254.11,1612.08h209.05V1296.9h-209.05V1612.08z"/>
			</g>
			<g>
				<rect x="1252.95" y="1400.38" class="st3" width="211.35" height="2.31"/>
			</g>
			<g>
				<rect x="1252.95" y="1508.24" class="st3" width="211.35" height="2.31"/>
			</g>
			<path class="st3" d="M1380.29,1315.22h-39.22c-1.9,0-3.46-1.56-3.46-3.46l0,0c0-1.9,1.56-3.46,3.46-3.46h39.22
				c1.9,0,3.46,1.56,3.46,3.46l0,0C1383.75,1313.66,1382.19,1315.22,1380.29,1315.22z"/>
			<path class="st3" d="M1380.29,1420.69h-39.22c-1.9,0-3.46-1.56-3.46-3.46l0,0c0-1.9,1.56-3.46,3.46-3.46h39.22
				c1.9,0,3.46,1.56,3.46,3.46l0,0C1383.75,1419.13,1382.19,1420.69,1380.29,1420.69z"/>
			<path class="st3" d="M1380.29,1530.63h-39.22c-1.9,0-3.46-1.56-3.46-3.46l0,0c0-1.9,1.56-3.46,3.46-3.46h39.22
				c1.9,0,3.46,1.56,3.46,3.46l0,0C1383.75,1529.07,1382.19,1530.63,1380.29,1530.63z"/>
		</g>
	</g>
	<g>
		
			<rect x="1894.07" y="1384.84" transform="matrix(-1 -1.224647e-16 1.224647e-16 -1 4089.8848 3018.4863)" class="st9" width="301.74" height="248.8"/>
		
			<rect x="2044.94" y="1384.84" transform="matrix(-1 -1.224647e-16 1.224647e-16 -1 4391.6211 3018.4863)" class="st10" width="301.74" height="248.8"/>
		<polygon class="st8" points="1894.25,1570.55 1942.06,1570.55 1937.85,1557.09 1942.06,1547.48 1894.25,1547.48 		"/>
		<polygon class="st30" points="2044.94,1461.84 2092.76,1461.84 2088.54,1448.38 2092.76,1438.77 2044.94,1438.77 		"/>
		<polygon class="st8" points="2044.94,1438.77 1997.13,1438.77 2001.34,1452.23 1997.13,1461.84 2044.94,1461.84 		"/>
		<polygon class="st30" points="2346.69,1573.22 2298.87,1573.22 2303.08,1586.67 2298.87,1596.29 2346.69,1596.29 		"/>
		<rect x="2240.09" y="1401.71" class="st13" width="86.83" height="33.78"/>
	</g>
	<g>
		<rect x="2057.89" y="1240.54" class="st25" width="174.84" height="144.16"/>
		<rect x="1970.47" y="1240.54" class="st24" width="174.84" height="144.16"/>
		<polygon class="st31" points="2232.63,1348.15 2204.92,1348.15 2207.36,1340.35 2204.92,1334.78 2232.63,1334.78 		"/>
		<polygon class="st21" points="2145.31,1285.16 2117.6,1285.16 2120.04,1277.36 2117.6,1271.79 2145.31,1271.79 		"/>
		<polygon class="st31" points="2145.31,1271.79 2173.01,1271.79 2170.57,1279.59 2173.01,1285.16 2145.31,1285.16 		"/>
		<polygon class="st21" points="1970.47,1349.69 1998.17,1349.69 1995.73,1357.49 1998.17,1363.06 1970.47,1363.06 		"/>
	</g>
	<g>
		<rect x="2213.15" y="1461.84" class="st25" width="208.36" height="171.8"/>
		<rect x="2108.97" y="1461.84" class="st24" width="208.36" height="171.8"/>
		<polygon class="st31" points="2421.38,1590.07 2388.37,1590.07 2391.27,1580.78 2388.37,1574.14 2421.38,1574.14 		"/>
		<polygon class="st21" points="2317.33,1515.01 2284.31,1515.01 2287.22,1505.72 2284.31,1499.08 2317.33,1499.08 		"/>
		<polygon class="st31" points="2317.33,1499.08 2350.34,1499.08 2347.43,1508.37 2350.34,1515.01 2317.33,1515.01 		"/>
		<polygon class="st21" points="2108.96,1591.92 2141.98,1591.92 2139.07,1601.21 2141.98,1607.85 2108.96,1607.85 		"/>
	</g>
	<g>
		<g>
			
				<rect x="2718.51" y="960.98" transform="matrix(-1 -1.224647e-16 1.224647e-16 -1 5611.2197 2065.5938)" class="st32" width="174.2" height="143.64"/>
			
				<rect x="2805.61" y="960.98" transform="matrix(-1 -1.224647e-16 1.224647e-16 -1 5785.417 2065.5938)" class="st24" width="174.2" height="143.64"/>
			<polygon class="st33" points="2718.61,1068.19 2746.22,1068.19 2743.79,1060.42 2746.22,1054.87 2718.61,1054.87 			"/>
			<polygon class="st21" points="2805.61,1005.43 2833.21,1005.43 2830.78,997.66 2833.21,992.11 2805.61,992.11 			"/>
			<polygon class="st33" points="2805.61,992.11 2778.01,992.11 2780.44,999.88 2778.01,1005.43 2805.61,1005.43 			"/>
			<polygon class="st21" points="2979.81,1069.73 2952.21,1069.73 2954.64,1077.5 2952.21,1083.05 2979.81,1083.05 			"/>
			<rect x="2918.27" y="970.72" class="st13" width="50.13" height="19.5"/>
		</g>
		<path class="st21" d="M2897.63,1098.5c4.23-2.75,13.81-8.78,14.24-7.34c0.31,1.04-0.26,2.76-1.45,4.53
			c5.73-1.89,11.51-3.05,24.97,0.08c2.69,0.63,5.1,2.26,6.5,4.65c1.3,2.21,1.71,4.92-1.83,6.93c-7.08,4.03-4.98,1.53-14.84,7.43
			c-9.86,5.89-21.69,7.04-28.55,2.37l-9.38-1.94l-0.57-15.57C2886.73,1099.64,2892.13,1099.2,2897.63,1098.5z"/>
		<path class="st21" d="M2653.46,938.18c0,0,26.76,21.86,52.59,5.77c0,0,3.28-15.63,1.36-26.33c-0.24-1.32-0.46-2.6-0.67-3.81
			c-2.11-12.07-2.97-18.9-2.97-18.9s-0.01,0-0.03,0c-1.37-0.29-45.89-9.51-45.59-8.11C2664.96,919.23,2653.46,938.18,2653.46,938.18
			z"/>
		<path class="st22" d="M2663.76,893.79c5.37,6.64,21.76,18.53,42.98,20.02c-2.11-12.07-2.97-18.9-2.97-18.9s-0.01,0-0.03,0
			C2702.54,894.82,2662.16,891.84,2663.76,893.79z"/>
		<path class="st21" d="M2712.19,892.04c0,0-44.44,19.65-56.25-8.22c-11.81-27.86-25.5-44.09,2.38-57.82
			c27.88-13.72,37.93-5.44,44.13,2.9C2708.66,837.25,2723.45,886.21,2712.19,892.04z"/>
		<path class="st8" d="M2659.02,891.44c-0.56,0.53-9.99,5.47-36.01-28.71c-4.08-5.37-8.51-17.8-3.7-30.43
			c4.81-12.62,27.72-26.14,47.42-33.84c9.24-3.62,18.05-2.91,24.79-1.15c8.3,2.17,13.19,10.88,10.83,19.13
			c-3.72,13.04-12.96,21.05-24.66,20.7c-7.83-0.24-7.34,15.76-7.19,19.58c0.14,3.82-0.12,7.06-9.99,5.48
			c-8.45-1.36-3.68,9.8-0.85,14.82c1.4,2.48,2.18,5.29,2.01,8.13C2661.55,887.33,2660.88,889.69,2659.02,891.44z"/>
		<path class="st23" d="M2591.01,1633.64h-28.64c-6,0-12.68-6.01-14.35-17.02c-1.67-11.01-14.01-17.02-16.68-26.03
			c-2.67-9.01,11.01-21.69,11.01-21.69l2.29-2.94l2.38-3.06l22.69,5.33c0,0,0.56,5.4,0.91,12.28c0.24,4.97,0.38,10.71,0.09,15.75
			c-0.67,12.02,3.37,24.95,14.04,27.29C2595.42,1625.89,2591.01,1633.64,2591.01,1633.64z"/>
		<path class="st23" d="M2790.4,1633.64h-75.92c-0.73-0.14-1.28-0.3-1.61-0.47c-5.07-2.54-3.48-21.94-2.87-27.94
			c0.12-1.11,0.2-1.76,0.2-1.76s26.7-21.35,30.37-5c0.12,0.51,0.25,1.01,0.39,1.5v0.01c4.63,15.3,25.35,22.25,37.32,24.18
			C2787.42,1625.65,2789.79,1630.98,2790.4,1633.64z"/>
		<path class="st24" d="M2775.09,1195.83c0,0-4.05,50.58-8.82,111.39c-6.48,82.6-14.27,184.06-15.04,203.28
			c-1.33,33.38-6.68,86.76-6.68,86.76s-12.67,12.68-38.04,7.34c0,0-22.61-76.21-29.06-156.85c-0.1-1.32-0.2-2.65-0.3-3.98
			c-6.01-82.09-15.35-254.95-15.35-254.95L2775.09,1195.83z"/>
		<path class="st25" d="M2759.99,1192.46c0,0,2.62,31.56-11.97,90.78c-10.71,43.45-70.56,164.51-70.56,164.51
			c-0.1-1.32-0.2-2.65-0.3-3.98c-6.01-82.09-15.35-254.95-15.35-254.95L2759.99,1192.46z"/>
		<path class="st24" d="M2759.99,1192.46c0,0-76.49,192.58-124.54,278.67c-48.05,86.09-63.07,110.12-63.07,110.12
			s-27.53-11.01-30.03-18.52c0,0,18.38-166.21,50.56-206.73c18.18-22.89,39.54-91.6,40.54-115.63c1-24.03,6.51-71.58,6.51-71.58
			L2759.99,1192.46z"/>
		<path class="st8" d="M2763.83,1188.82c-10.7,0.65-123.63-3.62-123.65-9.93c-0.1-21.93-4.69-57.44-10.41-100.56
			c-1.05-8.04-1.87-16.01-2.48-23.89c-1.58-20.53-1.65-40.29-0.12-58.15c2.84-33.17,16.93-59.92,31.3-72.4
			c1.89-1.58,8.85,3.71,20.53,8.44c10.78,4.37,19.32,1.24,29.02-1.47l12.39,10.91c10.31,9.61,21.36,24.26,26.74,37.46
			C2747.14,979.22,2764.79,1188.75,2763.83,1188.82z"/>
		<path class="st24" d="M2747.14,979.22l-30.84,7.17l-42.45,114.95c-6.1,16.51-21.83,27.47-39.43,27.47l0,0l3.72,56.75l136.95,10.26
			L2747.14,979.22z"/>
		<path class="st8" d="M2895.05,1107.22c0.97-8.98-3.63-10.66-3.63-10.66s-90.91-20.13-98.6-22.88
			c-7.69-2.75-71.56-74.55-71.56-74.55s-24.4-29.75-45.53-24.21c-18.36,4.82-26.01,18.7-28.94,32.1
			c-3.5,15.96,3.28,32.42,16.87,41.5c30.5,20.37,91.59,60.55,106.15,65.44c32.42,10.88,120.85,5.45,120.85,5.45
			S2894.29,1114.27,2895.05,1107.22z"/>
		<path class="st25" d="M2684.34,953.1c-7.18-6.67-30.21-25-30.21-25l4.33-4.21c3.07-0.65,26.87,17.25,34.8,24.31
			c9.54,8.5,36.03,35.17,36.03,35.17l-12.99,3.02C2716.3,986.39,2692.79,960.95,2684.34,953.1z"/>
	</g>
	<g>
		<path class="st34" d="M959.49,291.14v120.55c0,0.69,0,1.38-0.01,2.06c-0.12,12.66-1.3,22.65-2.74,22.65h-0.41
			c-1.33,0-2.45-8.56-2.71-19.89c-0.01-0.95-0.02-1.92-0.03-2.91v-0.21c-0.01-0.56-0.01-1.14-0.01-1.7V291.25
			C955.55,291.19,957.52,291.16,959.49,291.14z"/>
		<g>
			<path class="st35" d="M956.53,395.91c-55.5,0-100.48,47.57-100.48,106.25h200.97C1057.02,443.48,1012.03,395.91,956.53,395.91z"
				/>
			<path class="st36" d="M964.54,397.2c-2.89-0.63-5.83-0.96-8.83-0.96c-36.16,0-65.47,47.42-65.47,105.92h17.65
				C907.89,448.5,932.55,404.17,964.54,397.2z"/>
		</g>
	</g>
	<polygon class="st8" points="876.17,1197.56 886.51,1250.4 864.22,1252.27 839.06,1200.84 	"/>
	<path class="st37" d="M3060.71,1640.73H172.5c-1.73,0-3.15-1.42-3.15-3.15v-0.79c0-1.73,1.42-3.15,3.15-3.15h2888.21
		c1.73,0,3.15,1.42,3.15,3.15v0.79C3063.86,1639.31,3062.44,1640.73,3060.71,1640.73z"/>
</g>
</svg>
