<?xml version="1.0" encoding="utf-8"?>
<!-- Generator: Adobe Illustrator 25.2.0, SVG Export Plug-In . SVG Version: 6.00 Build 0)  -->
<svg version="1.1" id="_x3C_Layer_x3E_" xmlns="http://www.w3.org/2000/svg" xmlns:xlink="http://www.w3.org/1999/xlink" x="0px"
	 y="0px" viewBox="0 0 2760 1840" style="enable-background:new 0 0 2760 1840;" xml:space="preserve">
<style type="text/css">
	.st0{display:none;fill:#FFFFFF;}
	.st1{fill:#DCEAFF;}
	.st2{fill:#ADC8FE;}
	.st3{fill:#FFB27D;}
	.st4{fill:#E58638;}
	.st5{fill:#163560;}
	.st6{fill:#233862;}
	.st7{fill:#2A4E96;}
	.st8{fill:#F99746;}
	.st9{fill:#FCA56B;}
	.st10{opacity:0.5;}
	.st11{fill:#FFFFFF;}
	.st12{fill:#BDD1F9;}
	.st13{fill:#99B9FF;}
	.st14{fill:#FFAF73;}
	.st15{fill:#D4E4FF;}
	.st16{fill:#AEC3FF;}
	.st17{fill:#D87932;}
	.st18{fill:#7FA5EA;}
	.st19{fill:#95B1EF;}
	.st20{fill:#ED7D2B;}
	.st21{fill:#35488B;}
	.st22{fill:#758BEA;}
	.st23{fill:#A2C5FC;}
	.st24{fill:#2C3A64;}
	.st25{fill:#ED975D;}
	.st26{fill:#2B478B;}
	.st27{fill:#8C9DF4;}
	.st28{fill:#E8945B;}
	.st29{fill:#6980E2;}
	.st30{fill:#FFB93E;}
	.st31{fill:#91B5F8;}
	.st32{fill:#6C7AFF;}
</style>
<rect class="st0" width="2760" height="1840"/>
<g>
	<g>
		<path class="st1" d="M2565.42,1471.1c-145.24,0-2372.54,0.17-2372.54,0c-81.59-82.72-105.62-280.19,71.08-470.9
			c64.72-69.84-106.99-203.79,4.48-418.68c42.36-81.66,211.55-222.02,658.05-113.1c189.85,46.31,350.95-27.64,386.62-54.34
			c20.09-15.03,42.1-28.16,65.67-39.51c245.73-118.9,670.29-43.18,855.61,99.74c26.26,20.26,145.67,125.08,51.55,269.13
			c-59.43,90.97,189.55,177.84,278.01,281.7C2788.89,1289.23,2567.46,1467.66,2565.42,1471.1z"/>
	</g>
	<g>
		<g>
			<g>
				
					<rect x="1864.26" y="825.51" transform="matrix(-0.9699 -0.2435 0.2435 -0.9699 3473.781 2118.2817)" class="st2" width="7.13" height="37.81"/>
			</g>
			<g>
				<path class="st2" d="M1870.01,813.3c0,0.03,0,0,0,0.03c-0.34,2.83,0.47,5.88,3.15,6.88c3.57,1.34,5.99-0.99,6.9-4.58
					c0-0.02,0.23-0.92,0.23-0.93c0.3-1.26,3.22-0.23,3.64,0.99c0.76,2.2,0.78,4.68-0.14,7.08c-1.69,4.39-6.27,7.1-10.94,6.46
					c-6.18-0.85-10.1-6.82-8.62-12.7c0.41-1.64,1.2-3.1,2.25-4.29C1867.49,811.09,1870.22,811.78,1870.01,813.3z"/>
			</g>
			<g>
				<path class="st2" d="M1866.5,876.27c0-0.03,0,0,0-0.03c0.34-2.83-0.47-5.88-3.15-6.88c-3.58-1.34-6,0.99-6.9,4.58
					c-0.01,0.02-0.23,0.92-0.24,0.94c-0.3,1.26-3.22,0.23-3.64-1c-0.76-2.2-0.78-4.68,0.14-7.08c1.69-4.39,6.27-7.1,10.94-6.46
					c6.18,0.85,10.1,6.82,8.62,12.7c-0.41,1.64-1.2,3.1-2.25,4.29C1869.03,878.48,1866.3,877.79,1866.5,876.27z"/>
			</g>
		</g>
		<g>
			<g>
				<path class="st3" d="M1850.81,710.81c0,0-5.03-6.3-8.29-11.82c-3.27-5.52-23.29-17.14-24.72-7.36
					c-1.31,8.98,5.17,6.31,7.53,13.4c2.36,7.09,5.25,10.14,19.96,16.63L1850.81,710.81z"/>
			</g>
			<g>
				<path class="st4" d="M1846.02,714.33c4.39-6.56,5.7-6.9,5.7-6.9s72.62,27.8,79.56,30.12c6.93,2.32,110.54,8.17,110.54,8.17
					l31.27,65.95c0,0-138.08-30.22-155.52-36.43c-28.82-10.26-75.05-50.46-75.05-50.46S1842.57,719.48,1846.02,714.33z"/>
			</g>
			<g>
				<path class="st5" d="M2026.44,1330.96c0,0-1.58,24.46-6.32,30.21h-72.85c0.46-2.44,2.52-8.46,11.63-9.99
					c11.51-1.92,30.78-9.68,37.74-24.28C2003.98,1311.55,2026.44,1330.96,2026.44,1330.96z"/>
			</g>
			<g>
				<path class="st5" d="M2155.92,1320.91c0,0,4.59,37.1-1.65,37.65c-0.83,0.07-30.01,0.02-37.94,1.16
					c-12.95,1.86-34.56,0.24-34.56,0.24c-2.71,0.11-4.48-2.7-3.1-4.94c1.51-2.45,4.4-5.08,9.9-6.09
					c11.47-2.12,30.59-10.2,37.29-24.92C2132.91,1308.53,2155.92,1320.91,2155.92,1320.91z"/>
			</g>
			<g>
				<path class="st6" d="M1992.19,1005.43c0,0,18.31,61.49,70.81,168.29c17.19,34.98,28.69,63.29,36.38,85.56
					c1,2.87,1.93,5.64,2.79,8.3c1.4,4.29,2.65,8.32,3.76,12.09c0.84,2.89,1.61,5.62,2.31,8.21c6.88,25.7,6.74,37.39,6.74,37.39
					s11.92,4.31,26.16,2.95c7.25-0.7,23.17-7.23,23.17-7.23s-1.72-17.22-5.18-41.56c-0.39-2.68-0.8-5.43-1.22-8.27
					c-0.56-3.8-1.17-7.73-1.81-11.76c-0.44-2.71-0.89-5.46-1.36-8.23c-6.1-36.27-15.15-78.37-27.22-104.62
					c-24.8-53.89-29.86-201.38-29.86-201.38L1992.19,1005.43z"/>
			</g>
			<g>
				<path class="st7" d="M1962.89,974.05c0.58,34.56,3.32,107.05,15.6,190.61c5.93,40.38,9.12,72.74,10.76,97.8
					c0.19,2.95,0.36,5.79,0.5,8.53c0.25,4.41,0.44,8.57,0.59,12.46c0.11,2.95,0.2,5.75,0.26,8.41c0.69,26.97-0.76,39.36-0.76,39.36
					s1.04,0.61,3.21,1.39h0.02c3.7,1.33,10.64,3.13,21.09,3.13c4.7,0,8.74-0.6,11.98-1.36c5.65-1.32,8.88-3.13,8.88-3.13
					s2.76-15.57,5.9-38.17c0.39-2.71,0.77-5.51,1.15-8.41c0.52-3.83,1.01-7.81,1.53-11.92c0.33-2.75,0.67-5.54,1-8.38
					c4.15-35.89,7.36-78.53,3.9-107.33c-0.55-4.59-0.81-9.7-0.83-15.23v-0.02c-0.03-25.93,5.49-60.85,12.12-93.4
					c0,0,0.02-0.09,0.06-0.27c6.83-33.5,14.82-64.44,19.14-80.46c1.95-7.26,3.15-11.45,3.15-11.45l-3.63-0.12h-0.02l-28.7-0.88
					l-78.3-2.44l-4.82-0.15l-3.9-0.12C1962.78,952.51,1962.66,960.26,1962.89,974.05z"/>
			</g>
			<g>
				<path class="st3" d="M2043.93,729.66l-19.4,13.79l-28.03-5.66c0.39-2.45,2.24-12.62,3.92-21.83c0.1-0.54,0.2-1.09,0.3-1.62
					c1.44-7.84,2.69-14.57,2.69-14.57l26.18-12.52l9.76-4.67c-0.03,0.16-0.76,8.7-0.86,9.94
					C2036.66,714.63,2043.93,729.66,2043.93,729.66z"/>
			</g>
			<g>
				<path class="st4" d="M1998.46,722.7c0.62-0.25,38.14-10.87,42.21-9.58c4.08,1.29,6.49,8.86,6.49,8.86l-57.93,15.83
					C1989.23,737.81,1990.62,725.87,1998.46,722.7z"/>
			</g>
			<g>
				<path class="st8" d="M2099.49,964.26c-6.35,27.84-138.94-59.51-137.18-76.5c0.19-1.87,0.39-3.75,0.58-5.61
					c2.45-23.65,4.79-46.8,4.96-61.9c0.13-13.1,2.01-26.5,4.52-38.67c2.3-11.24,5.13-21.43,7.6-29.38
					c1.73-5.59,4.97-10.52,9.27-14.39c3.05-2.75,6.62-4.96,10.58-6.46c1.07-0.44,2.17-0.79,3.29-1.1
					c15.97-4.45,38.06-9.95,44.06-8.27c16.23,4.59,28.28,31.99,36.82,66.93C2099.94,854.3,2103.64,946.12,2099.49,964.26z"/>
			</g>
			<g>
				<path class="st9" d="M2036.53,692.91c-5.75,10.56-27.17,19.69-36.11,23.04c0.1-0.54,0.2-1.09,0.3-1.62
					c1.44-7.84,2.69-14.57,2.69-14.57l26.18-12.52C2035.38,687.16,2038.9,688.56,2036.53,692.91z"/>
			</g>
			<g>
				<path class="st3" d="M1990.69,698.29c0,0,47.24,14.14,55.96-14.22c8.72-28.36,20.7-45.64-9.1-55.87
					c-29.79-10.23-39.01-1.07-44.32,7.72C1987.92,644.71,1978.62,693.89,1990.69,698.29z"/>
			</g>
			<g>
				<path class="st5" d="M1995.09,633.19c0,0,3.01,33,10.13,31.57c7.11-1.43,13.56-2.49,12.52,7.46
					c-1.04,9.95-10.91,21.44,11.02,23.2c21.92,1.76,53.44-52.49,47.41-62.76C2058.79,603.02,1969.97,597.04,1995.09,633.19z"/>
			</g>
			<g>
				<path class="st4" d="M1966.31,952.51c13.13,4.55-0.23-12.52,0-16.08c1.02-15.65-5.38-35.44-3.42-54.27l80.2-46
					C2043.09,836.15,2062.12,951.78,1966.31,952.51z"/>
			</g>
			<g>
				<path class="st7" d="M2099.49,964.26c-34.24,60.88-39.69,84.13-39.69,84.13c-29.8-3.26-80.86-59.47-97.05-74.47
					c0,0-2.2-69.17-0.44-86.16l24.75-0.68c0,0,44.74,10.88,56.33-3.89c11.6-14.76,6.58-87.24,6.58-87.24l34-7.06
					C2099.94,854.3,2108.68,947.92,2099.49,964.26z"/>
			</g>
			<g>
				<path class="st3" d="M1896.34,847.59c0,0-16.3-10.58-19.39-11.5c-3.09-0.92-13.23-1.92-13.7-1.15
					c-0.47,0.76-1.86,3.11-0.09,3.91c1.77,0.79,3.98,0.51,3.31,1.07c-0.66,0.55-7.32-2.49-8.86,0.77
					c-1.54,3.26-2.89,14.43,4.93,17.81c7.82,3.39,27.11,0.33,28.5,0.72C1902.85,862.5,1896.34,847.59,1896.34,847.59z"/>
			</g>
			<g>
				<path class="st8" d="M1896.19,844.73c0,0,79.54,12.98,86.59,9.68c11.25-5.26-4.37-82.69-4.37-82.69s-0.67-17.55,20.69-21.69
					c18.57-3.6,36.48,9.75,36.48,9.75s16.29,13.99,14.21,29.5c-4.61,34.39-11.79,104.33-35.76,115.05
					c-30.92,13.83-120.38-38.34-120.38-38.34s-2.98-3.5-2.56-10C1891.47,850.25,1896.19,844.73,1896.19,844.73z"/>
			</g>
			<g>
				<path class="st7" d="M2056.56,794.59l-6.59,1.37c0,0-13.93-57.86-60.74-58.14c3.05-2.75,6.62-4.96,10.58-6.46
					C2016.96,735.76,2046.75,749.82,2056.56,794.59z"/>
			</g>
			<g class="st10">
				<g>
					<path class="st11" d="M2099.37,1259.28c1,2.87,1.93,5.64,2.79,8.3c17.58,0.02,34.27-3.14,46.61-6.22
						c2.65-0.66,5.12-1.33,7.32-1.96c-0.44-2.71-0.89-5.46-1.36-8.23C2142.24,1254.77,2121.26,1259.75,2099.37,1259.28z"/>
				</g>
			</g>
			<g class="st10">
				<g>
					<path class="st11" d="M2105.92,1279.67c0.84,2.89,1.61,5.62,2.31,8.21c15.99-0.43,31.01-3.32,42.35-6.15
						c3.15-0.79,6.01-1.59,8.53-2.3c-0.39-2.68-0.8-5.43-1.22-8.27C2146.45,1274.51,2126.86,1279.41,2105.92,1279.67z"/>
				</g>
			</g>
			<g>
				<path class="st3" d="M1848.84,708.25c0,0-0.91-6.28-2.84-10.83c-1.93-4.55-4.38-10.33-4.9-7.36c-0.53,2.98,1.4,8.05,0,10.51
					C1839.69,703.02,1848.84,708.25,1848.84,708.25z"/>
			</g>
		</g>
		<g>
			<g>
				<g>
					<path class="st11" d="M1989.25,1262.46c0.19,2.95,0.36,5.79,0.5,8.53c16.22,2.92,32.04,3.02,44.05,2.44
						c3.65-0.18,6.94-0.42,9.8-0.67c0.33-2.75,0.67-5.54,1-8.38C2032.68,1265.5,2011.08,1266.74,1989.25,1262.46z"/>
				</g>
			</g>
			<g>
				<g>
					<path class="st11" d="M1990.35,1283.45c0.11,2.95,0.2,5.75,0.26,8.41c14.99,2.35,29.47,2.42,40.64,1.87
						c3.6-0.18,6.85-0.4,9.67-0.64c0.39-2.71,0.77-5.51,1.15-8.41C2030.83,1285.73,2010.92,1286.91,1990.35,1283.45z"/>
				</g>
			</g>
		</g>
	</g>
	<g>
		<g>
			<path class="st12" d="M617.78,850.76v1.48c0,28.37-24.04,51.45-53.58,51.45H403.62c-17.84,0-32.35,13.93-32.35,31.06v4.91
				c0,17.13,14.51,31.06,32.35,31.06h177.27c3.6,0,6.54,2.92,6.54,6.53c0,3.83-1.55,7.29-4.07,9.8c-2.5,2.51-5.97,4.06-9.79,4.06
				H403.62c-29.55,0-53.59-23.08-53.59-51.45v-4.91c0-28.36,24.04-51.44,53.59-51.44H564.2c17.83,0,32.35-13.95,32.35-31.07v-1.48
				c0-17.13-14.52-31.07-32.35-31.07H400.63c-29.54,0-53.58-23.08-53.58-51.45v-6.89c0-28.37,24.04-51.45,53.58-51.45H564.2
				c17.83,0,32.35-13.93,32.35-31.06c0-17.13-14.52-31.07-32.35-31.07H241.73c1.92-6.7,4.11-13.49,6.58-20.38H564.2
				c29.54,0,53.58,23.08,53.58,51.45c0,28.36-24.04,51.45-53.58,51.45H400.63c-17.83,0-32.35,13.93-32.35,31.06v6.89
				c0,17.14,14.52,31.07,32.35,31.07H564.2C593.73,799.31,617.78,822.39,617.78,850.76z"/>
		</g>
	</g>
	<g>
		<g>
			<g>
				<rect x="1266.7" y="633.48" class="st13" width="274.52" height="6.17"/>
			</g>
			<g>
				<path class="st13" d="M1263.53,635.67c0-3.6,2.92-6.51,6.51-6.51c3.6,0,6.51,2.91,6.51,6.51s-2.92,6.51-6.51,6.51
					C1266.44,642.18,1263.53,639.26,1263.53,635.67z"/>
			</g>
			<g>
				<path class="st13" d="M1532.83,635.67c0-3.6,2.92-6.51,6.51-6.51c3.6,0,6.51,2.91,6.51,6.51s-2.91,6.51-6.51,6.51
					C1535.74,642.18,1532.83,639.26,1532.83,635.67z"/>
			</g>
		</g>
		<g>
			<g>
				<path class="st8" d="M1514.55,633.65v212.26c-21.07,3.6-76.08,0.51-107.43,4.11c-31.36,3.6-102.51-1.23-102.51-1.23V634.64
					c0-3.52,2.84-6.36,6.36-6.37c31.24-0.05,168.21-0.26,197.89-0.3C1512,627.96,1514.55,630.51,1514.55,633.65z"/>
			</g>
			<g>
				<path class="st14" d="M1514.55,763.25v82.66c-21.07,3.6-76.08,0.51-107.43,4.11c-31.36,3.6-102.51-1.23-102.51-1.23v-79.55
					c0.49-2.84,0.77-4.49,0.77-4.49s45.71,3.54,86.32,0.97C1432.1,763.16,1480.64,769.76,1514.55,763.25z"/>
			</g>
			<g>
				<path class="st11" d="M1343.11,811.82c-17.18,0-37.26-0.83-38.39-0.87l0.21-5.13c0.37,0.01,37.08,1.52,53.71,0.52l3.92-0.24
					c20.15-1.25,62.07-3.85,79.59-0.93c18,3,73.55-0.68,74.11-0.72l0.34,5.13c-2.31,0.16-56.72,3.75-75.3,0.66
					c-16.94-2.82-60.03-0.15-78.42,0.99l-3.93,0.24C1354.62,811.72,1349.03,811.82,1343.11,811.82z"/>
			</g>
			<g>
				<path class="st11" d="M1343.1,823.13c-17.18,0-37.26-0.83-38.39-0.87l0.21-5.14c0.37,0.01,37.08,1.52,53.71,0.52l3.92-0.24
					c20.15-1.25,62.07-3.85,79.59-0.93c18,3,73.55-0.68,74.11-0.71l0.34,5.13c-2.31,0.15-56.71,3.75-75.3,0.66
					c-16.94-2.83-60.03-0.15-78.42,0.99l-3.93,0.24C1354.62,823.03,1349.03,823.13,1343.1,823.13z"/>
			</g>
		</g>
	</g>
	<g>
		<g>
			<path class="st13" d="M1935.54,621.54c0,0-65.56,52.88-72.2,49.55c-6.64-3.31-7.86-11.68-7.86-11.68
				c-13.72,2.65-25.09,20.34-30.2,29.61c-1.86,3.39-2.88,5.67-2.88,5.67c-6.12,1.47-9.62-3.1-9.62-3.1
				c7.17-27.12,36.57-59.78,66.73-70.89C1909.65,609.58,1932.31,618.89,1935.54,621.54z"/>
		</g>
		<g>
			<g>
				<path class="st15" d="M1941.89,627.9c5.53,11.75-8.47,29.98-31.27,40.71c-22.8,10.73-45.77,9.9-51.3-1.85
					c-5.53-11.75,8.47-29.98,31.27-40.71C1913.39,615.32,1936.36,616.15,1941.89,627.9z"/>
			</g>
			<g>
				<g>
					<path class="st13" d="M1905.03,647.4c0.31,0.65-0.6,1.72-2.03,2.39c-1.42,0.67-2.83,0.69-3.14,0.04
						c-0.31-0.65,0.6-1.72,2.03-2.4C1903.32,646.77,1904.72,646.75,1905.03,647.4z"/>
				</g>
				<g>
					<path class="st13" d="M1887.55,655.63c0.31,0.65-0.6,1.72-2.03,2.39c-1.42,0.67-2.83,0.69-3.14,0.04
						c-0.31-0.65,0.6-1.72,2.03-2.39C1885.84,654.99,1887.24,654.98,1887.55,655.63z"/>
				</g>
				<g>
					<path class="st13" d="M1913.77,643.29c0.31,0.65-0.6,1.72-2.03,2.39c-1.42,0.67-2.83,0.69-3.14,0.04
						c-0.31-0.65,0.6-1.72,2.03-2.4C1912.06,642.65,1913.46,642.64,1913.77,643.29z"/>
				</g>
				<g>
					<path class="st13" d="M1922.51,639.18c0.31,0.65-0.6,1.72-2.03,2.4c-1.42,0.67-2.83,0.69-3.14,0.03
						c-0.31-0.65,0.6-1.72,2.03-2.4C1920.79,638.54,1922.2,638.53,1922.51,639.18z"/>
				</g>
				<g>
					<path class="st13" d="M1933.82,633.85c0.31,0.65-0.6,1.72-2.02,2.4c-1.42,0.67-2.83,0.69-3.14,0.03
						c-0.31-0.65,0.6-1.72,2.03-2.39C1932.11,633.21,1933.52,633.2,1933.82,633.85z"/>
				</g>
				<g>
					<path class="st13" d="M1896.29,651.52c0.31,0.65-0.6,1.72-2.03,2.39c-1.42,0.67-2.83,0.69-3.14,0.04
						c-0.31-0.65,0.6-1.72,2.03-2.39C1894.58,650.88,1895.98,650.86,1896.29,651.52z"/>
				</g>
				<g>
					<path class="st13" d="M1876.81,660.68c0.31,0.65-0.6,1.72-2.02,2.39c-1.43,0.67-2.83,0.69-3.14,0.03
						c-0.31-0.65,0.6-1.72,2.03-2.39C1875.1,660.05,1876.51,660.03,1876.81,660.68z"/>
				</g>
				<g>
					<path class="st13" d="M1902.55,642.15c0.31,0.65-0.6,1.72-2.03,2.39c-1.43,0.67-2.83,0.69-3.14,0.04
						c-0.31-0.65,0.6-1.72,2.03-2.4C1900.84,641.51,1902.25,641.49,1902.55,642.15z"/>
				</g>
				<g>
					<path class="st13" d="M1885.08,650.37c0.31,0.65-0.6,1.72-2.02,2.39s-2.83,0.69-3.14,0.03c-0.31-0.65,0.6-1.72,2.03-2.39
						C1883.37,649.73,1884.77,649.72,1885.08,650.37z"/>
				</g>
				<g>
					<path class="st13" d="M1875.99,653.74c0.31,0.65-0.6,1.72-2.03,2.39c-1.43,0.67-2.83,0.69-3.14,0.04
						c-0.31-0.65,0.6-1.72,2.03-2.39C1874.28,653.1,1875.68,653.09,1875.99,653.74z"/>
				</g>
				<g>
					<path class="st13" d="M1926.86,629.8c0.31,0.65-0.6,1.72-2.03,2.4c-1.42,0.67-2.83,0.69-3.14,0.03
						c-0.31-0.65,0.6-1.72,2.03-2.39C1925.15,629.16,1926.55,629.14,1926.86,629.8z"/>
				</g>
				<g>
					<path class="st13" d="M1881.83,645.49c0.31,0.65-0.6,1.72-2.02,2.39c-1.43,0.67-2.83,0.69-3.14,0.03
						c-0.31-0.65,0.6-1.72,2.02-2.39C1880.12,644.85,1881.53,644.84,1881.83,645.49z"/>
				</g>
				<g>
					<path class="st13" d="M1911.29,638.03c0.31,0.65-0.6,1.72-2.03,2.39c-1.42,0.67-2.83,0.69-3.14,0.04
						c-0.31-0.65,0.6-1.72,2.03-2.4C1909.58,637.4,1910.99,637.38,1911.29,638.03z"/>
				</g>
				<g>
					<path class="st13" d="M1920.03,633.92c0.31,0.65-0.6,1.72-2.03,2.39s-2.83,0.69-3.14,0.03c-0.31-0.65,0.6-1.72,2.03-2.39
						C1918.32,633.28,1919.72,633.27,1920.03,633.92z"/>
				</g>
				<g>
					<path class="st13" d="M1893.81,646.26c0.31,0.65-0.6,1.72-2.03,2.39c-1.42,0.67-2.83,0.69-3.13,0.04
						c-0.31-0.65,0.6-1.73,2.02-2.4C1892.1,645.62,1893.51,645.61,1893.81,646.26z"/>
				</g>
				<g>
					<path class="st13" d="M1907.23,652.09c0.31,0.65-0.6,1.72-2.03,2.4c-1.42,0.67-2.83,0.69-3.14,0.03
						c-0.31-0.65,0.6-1.72,2.03-2.4C1905.52,651.45,1906.93,651.44,1907.23,652.09z"/>
				</g>
				<g>
					<path class="st13" d="M1889.76,660.31c0.31,0.65-0.6,1.72-2.03,2.39s-2.83,0.69-3.14,0.04c-0.31-0.65,0.6-1.72,2.03-2.4
						C1888.04,659.68,1889.45,659.66,1889.76,660.31z"/>
				</g>
				<g>
					<path class="st13" d="M1883.66,666.06c0.31,0.65-0.6,1.72-2.03,2.4c-1.42,0.67-2.83,0.69-3.13,0.03
						c-0.31-0.65,0.6-1.72,2.02-2.39C1881.95,665.43,1883.36,665.41,1883.66,666.06z"/>
				</g>
				<g>
					<path class="st13" d="M1915.97,647.97c0.31,0.65-0.6,1.72-2.02,2.4c-1.43,0.67-2.83,0.69-3.14,0.03
						c-0.31-0.65,0.6-1.72,2.02-2.39S1915.67,647.32,1915.97,647.97z"/>
				</g>
				<g>
					<path class="st13" d="M1924.71,643.86c0.31,0.65-0.6,1.72-2.02,2.39c-1.43,0.67-2.83,0.69-3.14,0.03
						c-0.31-0.65,0.6-1.72,2.02-2.39C1923,643.23,1924.4,643.21,1924.71,643.86z"/>
				</g>
				<g>
					<path class="st13" d="M1931.89,640.48c0.31,0.65-0.6,1.72-2.03,2.4c-1.42,0.67-2.83,0.69-3.13,0.03
						c-0.31-0.65,0.6-1.72,2.02-2.39S1931.58,639.83,1931.89,640.48z"/>
				</g>
				<g>
					<path class="st13" d="M1927.19,649.12c0.31,0.65-0.6,1.72-2.03,2.4c-1.42,0.67-2.83,0.69-3.14,0.03
						c-0.31-0.65,0.6-1.72,2.03-2.39S1926.88,648.47,1927.19,649.12z"/>
				</g>
				<g>
					<path class="st13" d="M1898.49,656.2c0.31,0.65-0.6,1.72-2.02,2.39c-1.43,0.67-2.83,0.69-3.14,0.04
						c-0.31-0.65,0.6-1.72,2.03-2.39C1896.78,655.56,1898.19,655.55,1898.49,656.2z"/>
				</g>
				<g>
					<path class="st13" d="M1909.71,657.35c0.31,0.65-0.6,1.72-2.03,2.39c-1.42,0.67-2.83,0.69-3.13,0.03
						c-0.31-0.65,0.6-1.72,2.02-2.39C1908,656.71,1909.4,656.69,1909.71,657.35z"/>
				</g>
				<g>
					<path class="st13" d="M1897.48,631.37c0.31,0.65-0.6,1.72-2.03,2.39c-1.42,0.67-2.83,0.69-3.14,0.03
						c-0.31-0.65,0.6-1.72,2.03-2.39C1895.77,630.73,1897.17,630.72,1897.48,631.37z"/>
				</g>
				<g>
					<path class="st13" d="M1912.28,662.82c0.31,0.65-0.6,1.72-2.03,2.4c-1.43,0.67-2.83,0.69-3.14,0.03
						c-0.31-0.65,0.6-1.72,2.03-2.39C1910.57,662.18,1911.98,662.17,1912.28,662.82z"/>
				</g>
				<g>
					<path class="st13" d="M1918.45,653.23c0.31,0.65-0.6,1.72-2.03,2.4c-1.42,0.67-2.83,0.69-3.14,0.03
						c-0.31-0.65,0.6-1.72,2.03-2.39S1918.14,652.58,1918.45,653.23z"/>
				</g>
				<g>
					<path class="st13" d="M1900.97,661.46c0.31,0.65-0.6,1.72-2.03,2.39s-2.83,0.69-3.14,0.04c-0.31-0.65,0.6-1.72,2.03-2.4
						C1899.26,660.82,1900.66,660.81,1900.97,661.46z"/>
				</g>
				<g>
					<path class="st13" d="M1893.05,665.19c0.31,0.65-0.6,1.72-2.02,2.39s-2.83,0.69-3.14,0.03c-0.31-0.65,0.6-1.72,2.03-2.39
						C1891.34,664.55,1892.74,664.53,1893.05,665.19z"/>
				</g>
				<g>
					<path class="st13" d="M1900.08,636.9c0.31,0.65-0.6,1.72-2.03,2.39c-1.43,0.67-2.83,0.69-3.14,0.03
						c-0.31-0.65,0.6-1.72,2.03-2.39C1898.37,636.26,1899.78,636.25,1900.08,636.9z"/>
				</g>
				<g>
					<path class="st13" d="M1908.82,632.79c0.31,0.65-0.6,1.72-2.03,2.39c-1.42,0.67-2.83,0.69-3.14,0.04
						c-0.31-0.65,0.6-1.72,2.03-2.39C1907.11,632.15,1908.52,632.13,1908.82,632.79z"/>
				</g>
				<g>
					<path class="st13" d="M1906.78,628.43c0.31,0.65-0.6,1.72-2.03,2.39s-2.83,0.69-3.14,0.04c-0.31-0.65,0.6-1.72,2.02-2.39
						C1905.06,627.8,1906.47,627.78,1906.78,628.43z"/>
				</g>
				<g>
					<path class="st13" d="M1920.47,657.53c0.31,0.65-0.6,1.72-2.03,2.39c-1.42,0.67-2.83,0.69-3.13,0.04
						c-0.31-0.65,0.6-1.72,2.02-2.39C1918.76,656.89,1920.16,656.88,1920.47,657.53z"/>
				</g>
				<g>
					<path class="st13" d="M1903.84,665.35c0.31,0.65-0.6,1.72-2.02,2.4c-1.43,0.67-2.83,0.69-3.14,0.03
						c-0.31-0.65,0.6-1.72,2.03-2.4C1902.13,664.71,1903.54,664.7,1903.84,665.35z"/>
				</g>
				<g>
					<path class="st13" d="M1889.3,636.66c0.31,0.65-0.6,1.72-2.03,2.39c-1.42,0.67-2.83,0.69-3.14,0.03
						c-0.31-0.65,0.6-1.72,2.03-2.39C1887.59,636.02,1888.99,636.01,1889.3,636.66z"/>
				</g>
				<g>
					<path class="st13" d="M1917.56,628.67c0.31,0.65-0.6,1.72-2.03,2.39s-2.83,0.69-3.14,0.03c-0.31-0.65,0.6-1.72,2.03-2.39
						C1915.85,628.04,1917.26,628.02,1917.56,628.67z"/>
				</g>
				<g>
					<path class="st13" d="M1891.35,641.01c0.31,0.65-0.6,1.72-2.03,2.39c-1.42,0.67-2.83,0.69-3.13,0.03
						c-0.31-0.65,0.6-1.72,2.02-2.39S1891.04,640.36,1891.35,641.01z"/>
				</g>
			</g>
		</g>
		<g>
			<path class="st16" d="M1754.5,1358.32h-13.54V600.06c0-3.07,2.49-5.57,5.57-5.57h2.87c2.82,0,5.1,2.28,5.1,5.1V1358.32z"/>
		</g>
		<g>
			<g>
				<path class="st13" d="M1754.89,895l-0.78-9.25c8.19-0.26,15.39-2.6,22.01-7.18c21.34-14.75,34.12-51.03,36.94-104.92
					c2.17-41.33-2.43-78.55-2.48-78.92l15.19-0.71c0.78,6.17,18.37,151.56-38.21,190.67C1778.21,891.14,1767.22,894.61,1754.89,895z
					"/>
			</g>
		</g>
		<g>
			<path class="st16" d="M1879.71,1050.08h-122.29c-5.35,0-9.69-4.34-9.69-9.69l0,0c0-5.35,4.34-9.69,9.69-9.69h122.29
				c5.35,0,9.69,4.34,9.69,9.69l0,0C1889.4,1045.74,1885.06,1050.08,1879.71,1050.08z"/>
		</g>
		<g>
			<path class="st16" d="M1834.67,703.65h-85.55c-4.49,0-8.17-3.68-8.17-8.17l0,0c0-4.49,3.68-8.17,8.17-8.17h85.55
				c4.49,0,8.17,3.68,8.17,8.17l0,0C1842.84,699.97,1839.17,703.65,1834.67,703.65z"/>
		</g>
		<g>
			<g>
				<polygon class="st8" points="1874.99,906.5 1867.56,1011.13 1837.16,1011.13 1831.11,906.5 				"/>
			</g>
			<g>
				<rect x="1837.16" y="1011.13" class="st11" width="30.4" height="19.58"/>
			</g>
			<g>
				<rect x="1831.11" y="899.97" class="st17" width="43.88" height="6.53"/>
			</g>
			<g>
				<path class="st11" d="M1865.2,942.27c0-3.54-2.87-6.41-6.41-6.41s-6.41,2.87-6.41,6.41c0,3.54,2.87,6.41,6.41,6.41
					S1865.2,945.81,1865.2,942.27z"/>
			</g>
			<g>
				<path class="st11" d="M1856.65,957.84c0-4.39-3.56-7.94-7.94-7.94c-4.39,0-7.94,3.56-7.94,7.94c0,4.39,3.56,7.94,7.94,7.94
					C1853.09,965.79,1856.65,962.23,1856.65,957.84z"/>
			</g>
			<g>
				<path class="st11" d="M1849.3,944.68c0-2.21-1.79-4.01-4.01-4.01s-4.01,1.8-4.01,4.01c0,2.21,1.79,4.01,4.01,4.01
					S1849.3,946.89,1849.3,944.68z"/>
			</g>
			<g>
				<path class="st8" d="M1847.91,943.29c0-0.77-0.62-1.39-1.39-1.39s-1.39,0.62-1.39,1.39c0,0.77,0.62,1.39,1.39,1.39
					S1847.91,944.06,1847.91,943.29z"/>
			</g>
			<g>
				<path class="st8" d="M1847.63,960.91c0-1.38-1.12-2.49-2.49-2.49c-1.38,0-2.49,1.12-2.49,2.49c0,1.38,1.12,2.49,2.49,2.49
					C1846.52,963.4,1847.63,962.29,1847.63,960.91z"/>
			</g>
			<g>
				<path class="st8" d="M1863.73,944.33c0-1.49-1.21-2.7-2.7-2.7c-1.49,0-2.7,1.21-2.7,2.7c0,1.49,1.21,2.7,2.7,2.7
					C1862.52,947.03,1863.73,945.82,1863.73,944.33z"/>
			</g>
		</g>
		<g>
			<g>
				<polygon class="st8" points="1819.64,937.21 1812.21,1011.13 1781.81,1011.13 1775.76,937.21 				"/>
			</g>
			<g>
				<rect x="1781.81" y="1011.13" class="st11" width="30.4" height="19.58"/>
			</g>
			<g>
				<rect x="1775.76" y="932.6" class="st17" width="43.88" height="4.61"/>
			</g>
			<g>
				<path class="st11" d="M1809.85,957.24c0-3.54-2.87-6.41-6.41-6.41c-3.54,0-6.41,2.87-6.41,6.41c0,3.54,2.87,6.41,6.41,6.41
					C1806.98,963.65,1809.85,960.78,1809.85,957.24z"/>
			</g>
			<g>
				<path class="st11" d="M1801.3,972.81c0-4.39-3.56-7.94-7.94-7.94c-4.39,0-7.94,3.56-7.94,7.94c0,4.39,3.56,7.94,7.94,7.94
					C1797.74,980.75,1801.3,977.19,1801.3,972.81z"/>
			</g>
			<g>
				<path class="st11" d="M1793.94,959.64c0-2.21-1.79-4.01-4.01-4.01s-4.01,1.8-4.01,4.01c0,2.21,1.79,4.01,4.01,4.01
					S1793.94,961.85,1793.94,959.64z"/>
			</g>
			<g>
				<path class="st8" d="M1792.56,958.25c0-0.77-0.62-1.39-1.39-1.39s-1.39,0.62-1.39,1.39c0,0.77,0.62,1.39,1.39,1.39
					S1792.56,959.02,1792.56,958.25z"/>
			</g>
			<g>
				<path class="st8" d="M1792.28,975.87c0-1.38-1.12-2.49-2.49-2.49s-2.49,1.12-2.49,2.49s1.12,2.49,2.49,2.49
					S1792.28,977.25,1792.28,975.87z"/>
			</g>
			<g>
				<path class="st8" d="M1808.37,959.29c0-1.49-1.21-2.7-2.7-2.7c-1.49,0-2.7,1.21-2.7,2.7c0,1.49,1.21,2.7,2.7,2.7
					C1807.17,961.99,1808.37,960.78,1808.37,959.29z"/>
			</g>
		</g>
		<g>
			<path class="st18" d="M1855.48,659.4c-13.72,2.65-25.09,20.34-30.2,29.61c0.63-11.52,22.44-37.79,28.32-35.71
				C1859.48,655.37,1855.48,659.4,1855.48,659.4z"/>
		</g>
	</g>
	<g>
		<g>
			<g>
				<polygon class="st19" points="1834.37,1427.83 1813.01,1468 1802.01,1468 1810.54,1427.83 				"/>
			</g>
		</g>
		<g>
			<g>
				<g>
					<polygon class="st19" points="2289.64,1427.83 2311,1468 2322.01,1468 2313.48,1427.83 					"/>
				</g>
			</g>
		</g>
		<g>
			<path class="st12" d="M2520.58,1146.05l-53.2,145.59c-32.66,89.4-117.7,148.86-212.88,148.86h-383.23
				c-82.07,0-153.04-57.22-170.43-137.43l-21.16-97.57c51.36,8.19,105.86,12.67,161.47,14.35
				C2162.53,1229.62,2520.58,1146.05,2520.58,1146.05z"/>
		</g>
		<g>
			<path class="st16" d="M2062.54,1440.5h-191.27c-82.07,0-153.04-57.22-170.43-137.43l-21.16-97.57
				c51.36,8.19,105.86,12.67,161.47,14.35C1838.85,1255.69,1841.78,1411.91,2062.54,1440.5z"/>
		</g>
		<g>
			<g>
				<path class="st19" d="M1932.67,1226.67c-44.38,0-84.26-1.32-117.4-3.05c-93.05-4.84-154.59-13.82-155.2-13.91
					c-4.83-0.71-8.17-5.21-7.46-10.04c0.71-4.83,5.21-8.17,10.04-7.46c0.6,0.09,61.5,8.97,153.78,13.75
					c85.09,4.42,215.03,6.16,350.89-10.6c136.01-16.78,229.23-33.41,283.49-44.41c58.79-11.92,85.76-19.97,86.02-20.05
					c4.68-1.41,9.61,1.24,11.02,5.92c1.41,4.68-1.24,9.61-5.92,11.02c-1.1,0.33-27.72,8.29-87.13,20.35
					c-54.62,11.08-148.46,27.84-285.32,44.72C2085.23,1223.33,2003.26,1226.67,1932.67,1226.67z"/>
			</g>
		</g>
	</g>
	<g>
		<rect x="933.77" y="577.69" class="st13" width="254.36" height="323.94"/>
	</g>
	<g>
		<rect x="944.08" y="587.82" class="st12" width="233.74" height="304.92"/>
	</g>
	<g>
		<g>
			<rect x="288.86" y="1081.76" class="st12" width="314.3" height="386.9"/>
		</g>
		<g>
			<rect x="288.86" y="1139.45" class="st16" width="314.3" height="5.25"/>
		</g>
		<g>
			<g>
				<path class="st16" d="M381.85,1134.33h-83.54v-44.65h83.54V1134.33z M299.37,1133.27h81.44v-42.55h-81.44V1133.27z"/>
			</g>
			<g>
				<path class="st16" d="M427.31,1112c0-8.27,6.7-14.97,14.97-14.97c8.27,0,14.97,6.7,14.97,14.97c0,8.27-6.7,14.97-14.97,14.97
					C434.01,1126.97,427.31,1120.27,427.31,1112z"/>
			</g>
			<g>
				<path class="st16" d="M467.76,1112c0-6.74,5.46-12.21,12.2-12.21s12.2,5.46,12.2,12.21c0,6.74-5.46,12.2-12.2,12.2
					S467.76,1118.74,467.76,1112z"/>
			</g>
			<g>
				<rect x="511.28" y="1097.65" class="st16" width="66.9" height="28.7"/>
			</g>
		</g>
		<g>
			<g>
				<circle class="st16" cx="442.28" cy="1288.48" r="116.45"/>
			</g>
			<g>
				
					<ellipse transform="matrix(0.9988 -0.0494 0.0494 0.9988 -63.048 23.3964)" class="st19" cx="442.28" cy="1288.48" rx="93.64" ry="93.64"/>
			</g>
			<g>
				<path class="st16" d="M534.34,1313.66h-6.29c-7.79,0-14.16-6.37-14.16-14.16v-12.59c0-7.79,6.37-14.16,14.16-14.16h6.29
					c7.79,0,14.16,6.37,14.16,14.16v12.59C548.5,1307.28,542.13,1313.66,534.34,1313.66z"/>
			</g>
		</g>
	</g>
	<g>
		<g>
			<rect x="900.08" y="1076.52" class="st12" width="348.97" height="391.49"/>
		</g>
		<g>
			<rect x="900.08" y="1196.61" class="st16" width="348.97" height="4.63"/>
		</g>
		<g>
			<path class="st16" d="M1105.23,1097.65h-56.51c-1.86,0-3.39-1.53-3.39-3.39v-0.98c0-1.86,1.53-3.39,3.39-3.39h56.51
				c1.86,0,3.39,1.53,3.39,3.39v0.98C1108.62,1096.13,1107.1,1097.65,1105.23,1097.65z"/>
		</g>
		<g>
			<rect x="900.08" y="1338.68" class="st16" width="348.97" height="4.63"/>
		</g>
		<g>
			<path class="st16" d="M1105.23,1218.58h-56.51c-1.86,0-3.39-1.53-3.39-3.39v-0.98c0-1.87,1.53-3.39,3.39-3.39h56.51
				c1.86,0,3.39,1.53,3.39,3.39v0.98C1108.62,1217.05,1107.1,1218.58,1105.23,1218.58z"/>
		</g>
		<g>
			<path class="st16" d="M1105.23,1366.98h-56.51c-1.86,0-3.39-1.53-3.39-3.39v-0.98c0-1.86,1.53-3.39,3.39-3.39h56.51
				c1.86,0,3.39,1.53,3.39,3.39v0.98C1108.62,1365.46,1107.1,1366.98,1105.23,1366.98z"/>
		</g>
	</g>
	<g>
		<rect x="878.34" y="1056.1" class="st19" width="389.97" height="25.65"/>
	</g>
	<g>
		<g>
			<path class="st19" d="M1056.23,1000.2L1056.23,1000.2c-4.29,0-7.79-3.51-7.79-7.79V921.5c0-4.29,3.51-7.79,7.79-7.79l0,0
				c4.29,0,7.79,3.51,7.79,7.79v70.91C1064.02,996.69,1060.52,1000.2,1056.23,1000.2z"/>
		</g>
		<g>
			<path class="st3" d="M1014.92,961.48c0,0,18.84-7.09,25.19-2.78c6.35,4.31-1.97,17.67-7.01,18.55
				c-5.04,0.88-19.71-1.31-19.71-1.31L1014.92,961.48z"/>
		</g>
		<g>
			<path class="st20" d="M1017.96,970.5c2.96-8.06,0.46-12.07,0.46-12.07s-69.33-13.43-75.79-17.73
				c-6.46-4.3-64.95-85.41-64.95-85.41l-91.91,8.56c0,0,114.65,96.31,131.24,106.89c27.41,17.47,93.67,7.52,93.67,7.52
				S1015.64,976.83,1017.96,970.5z"/>
		</g>
		<g>
			<g>
				
					<rect x="1028.79" y="946.23" transform="matrix(-0.7715 -0.6362 0.6362 -0.7715 1213.835 2372.5505)" class="st21" width="8.33" height="44.16"/>
			</g>
			<g>
				<path class="st21" d="M1050.85,936.59c-0.02,0.03,0,0-0.02,0.03c-1.78,2.82-2.45,6.44-0.13,8.83c3.1,3.2,6.82,1.96,9.57-1.38
					c0.01-0.01,0.7-0.85,0.72-0.87c0.95-1.17,3.51,1.37,3.34,2.87c-0.3,2.7-1.52,5.33-3.7,7.4c-3.98,3.79-10.17,4.34-14.77,1.33
					c-6.1-3.99-7.23-12.25-2.73-17.72c1.26-1.53,2.82-2.66,4.52-3.39C1049.3,932.99,1051.83,935.09,1050.85,936.59z"/>
			</g>
			<g>
				<path class="st21" d="M1015.59,1001.24c0.02-0.03,0,0,0.02-0.03c1.78-2.81,2.45-6.44,0.13-8.83c-3.1-3.2-6.82-1.96-9.57,1.38
					c-0.01,0.02-0.7,0.85-0.72,0.87c-0.95,1.17-3.51-1.37-3.34-2.87c0.3-2.7,1.52-5.33,3.7-7.4c3.99-3.79,10.17-4.34,14.77-1.33
					c6.1,3.99,7.23,12.25,2.73,17.72c-1.26,1.53-2.82,2.66-4.52,3.39C1017.14,1004.84,1014.61,1002.74,1015.59,1001.24z"/>
			</g>
		</g>
		<g>
			<path class="st3" d="M1040.11,958.71c0,0-10.96-0.34-11.31,5.09c-0.35,5.43-1.2,13.77,4.3,13.45
				C1038.61,976.93,1054.05,964.47,1040.11,958.71z"/>
		</g>
		<g>
			<path class="st22" d="M1078.45,969.48c0,0,69.16-62.97,95.92-27.69c6.98,9.2-8.18,20.12-19.08,21.81
				C1135.79,966.62,1103.53,956.53,1078.45,969.48z"/>
		</g>
		<g>
			<g>
				<path class="st12" d="M1189.38,1000.2c0,23.97-25.9,44.88-64.33,55.98H998.77c-38.42-11.1-64.32-32.01-64.32-55.98H1189.38z"/>
			</g>
			<g>
				<path class="st23" d="M1195.67,1000.2H928.16c-3.09,0-5.61-2.53-5.61-5.61l0,0c0-3.09,2.52-5.61,5.61-5.61h267.52
					c3.09,0,5.61,2.52,5.61,5.61l0,0C1201.28,997.67,1198.76,1000.2,1195.67,1000.2z"/>
			</g>
		</g>
		<g>
			<path class="st22" d="M1107.46,1011.46c0,0,4.64,26.11-8.1,33.21c-12.75,7.11-22.81-8-11.63-14.81
				C1098.91,1023.05,1103.37,1023.36,1107.46,1011.46z"/>
		</g>
		<g>
			<path class="st22" d="M1108.41,988.98c0,0,35.17,4.69,49,31.02c13.83,26.33,24.81,63.29-3.44,68.96
				c-28.25,5.67-41.36-8.74-32.58-41.91C1133.78,1000.2,1108.41,988.98,1108.41,988.98z"/>
		</g>
		<g>
			<g>
				<path class="st24" d="M603.16,1410.6c0,0-12.38,11.48-9.97,19.63c2.42,8.15,13.59,13.59,15.1,23.56
					c1.51,9.97,7.55,15.4,12.99,15.4c5.44,0,25.91,0,25.91,0s4-7.01-5.66-9.13c-9.66-2.11-13.31-13.82-12.7-24.7
					c0.6-10.87-0.91-25.37-0.91-25.37l-20.54-4.83L603.16,1410.6z"/>
			</g>
			<g>
				<path class="st24" d="M755.06,1439.93c0,0-2.89,26.12,2.55,28.83h70.11c0,0,0.13-8.3-11.05-10.11
					c-11.17-1.81-30.8-8.46-34.12-23.25C779.22,1420.6,755.06,1439.93,755.06,1439.93z"/>
			</g>
			<g>
				<path class="st21" d="M813.79,1068.8c0,0-3.67,45.78-7.98,100.81c-5.86,74.75-12.91,166.58-13.61,183.97
					c-1.21,30.21-6.04,78.52-6.04,78.52s-11.47,11.48-34.43,6.64c0,0-20.46-68.97-26.3-141.95c-0.09-1.2-0.18-2.4-0.27-3.61
					c-5.44-74.29-13.89-230.73-13.89-230.73L813.79,1068.8z"/>
			</g>
			<g>
				<path class="st24" d="M813.79,1068.8c0,0-3.67,45.78-7.98,100.81l-80.38,127.18c-0.09-1.2-0.18-2.4-0.27-3.61
					c-5.44-74.29-13.89-230.73-13.89-230.73L813.79,1068.8z"/>
			</g>
			<g>
				<path class="st21" d="M797.03,1074.23c0,0-3.4,8.52-9.15,22.61c-13.44,32.82-39.72,95.88-65.75,151.76
					c-12.06,25.9-24.07,50.25-34.72,69.34c-43.49,77.93-57.08,99.67-57.08,99.67s-0.63-0.25-1.67-0.7
					c-4.51-1.9-17.01-7.43-22.73-12.5c-1.39-1.24-2.39-2.44-2.77-3.57c0,0,16.63-150.41,45.75-187.08
					c16.45-20.72,35.78-82.9,36.69-104.63c0.4-9.59,1.6-23.3,2.81-35.66c1.08-11.16,2.2-21.19,2.74-26.04
					c0.23-1.97,0.35-3.08,0.35-3.08l76.36,21.63L797.03,1074.23z"/>
			</g>
		</g>
		<g>
			<path class="st24" d="M781.49,1095.55c-34.2-1.78-49.4-5.58-68.98-10.38c-11.78-2.88-19.56-8.94-24.11-11.71
				c1.08-11.16,2.2-21.19,2.74-26.04l30.71,15.71L781.49,1095.55z"/>
		</g>
		<g>
			<path class="st3" d="M826.17,813.22c0,0,26.99,47.48,53.36,53.68c0,0-0.8-11.66-5.05-21.87c-1.36-3.26-0.74-7.01,1.48-9.75
				c1.06-1.31,2.06-2.56,2.99-3.74c6.64-8.51,9.8-13.72,9.8-13.72l-8.95-24.07l-6.07-16.33c-2.92,5.3-6.14,9.81-9.49,13.68
				C846.94,810.98,826.17,813.22,826.17,813.22z"/>
		</g>
		<g>
			<path class="st25" d="M864.23,791.11c0,0-3.22,23.79,14.72,40.43c6.64-8.51,9.8-13.72,9.8-13.72l-8.95-24.07
				C870.2,790.83,864.23,791.11,864.23,791.11z"/>
		</g>
		<g>
			<path class="st3" d="M895.86,821.33c0,0-40.32-15.72-30.14-40.68c10.17-24.96,11.82-43.8,38-34.81
				c26.17,8.98,27.26,20.53,25.89,29.69C928.23,784.68,906.61,824.78,895.86,821.33z"/>
		</g>
		<g>
			<path class="st8" d="M872.8,927.03c-4.38,12.65-10.13,25.62-16.85,37.88c-1.32,2.42-2.62,4.81-3.83,7.18
				c-0.82,1.57-1.6,3.14-2.37,4.69c-14.71,29.67-21.49,55.38-24.42,75.58c-0.56,3.89-0.99,7.56-1.29,11.03
				c-1.33,14.82-139.9-33.43-135.43-54.16c2.95-13.65,6.97-27.99,10.74-40.21c5.49-17.9,10.41-31.25,10.41-31.25
				c25.92-61.68,62.71-94.89,91.37-112.42c5.19-3.19,10.11-5.86,14.66-8.07c17.41-8.54,29.26-10.67,29.26-10.67
				s5.93,29.63,31.34,41.38c0.03,0.09,3.97,16.09,3.99,16.16C884.62,879.37,881.24,902.68,872.8,927.03z"/>
		</g>
		<g>
			<path class="st26" d="M859.93,734.29c-0.28-0.56-1.1-1.15-3.1-1.77c0,0,1.88-0.63,4.06-0.15c1.13-2.76,3.88-7.47,9.04-7.5
				c0,0-2.96,0.77-4.05,3.73c7.07-4.48,20.18-5.79,52.91,5.12c43.13,14.37,21.58,39.4,15.05,41.41
				c-6.54,2.01-18.57-10.87-29.4-12.63c-10.82-1.76-16.68,13.32-20.8,14.57c-4.13,1.25-1.78-2.18-6.1-5.62
				c-4.32-3.44-6.8,4.65-6.71,10.32c0.09,5.68-8.33,11.06-8.33,11.06s0,0-4.94-9.06c-4.94-9.06-3.6-41.97,1.12-47.89
				C859.09,735.36,859.5,734.83,859.93,734.29z"/>
		</g>
		<g>
			<path class="st20" d="M787.37,904.51c0,0,4.64,35.12,20.33,61.71c15.69,26.58,22.64-14.79,22.64-14.79L787.37,904.51z"/>
		</g>
		<g>
			<path class="st21" d="M849.74,976.78c-14.71,29.67-21.49,55.38-24.42,75.58c-0.56,3.89-0.99,7.56-1.29,11.03
				c-1.33,14.82-0.57,25.73-0.02,31.93c1.43,16.18-120.16-15.06-136.43-38.45c-8.94-12.88,2.28-57.08,11.75-87.85
				c1.59,0.38,76.97,18.32,129.12-28.32L849.74,976.78z"/>
		</g>
		<g>
			<g>
				<path class="st24" d="M858.97,893.29l-7.51-14.98c0.02-0.26,0.82-26.44-14.89-41.8c-8.47-8.3-20.39-12.04-35.47-11.17
					c5.19-3.19,10.11-5.86,14.66-8.07c10.77,1.66,19.78,6.03,26.95,13.06C861.17,848.42,859.02,892.08,858.97,893.29z"/>
			</g>
		</g>
		<g>
			<path class="st3" d="M962.67,996.44c0,0,23.65-4.24,27.57-3.78c3.93,0.46,17.42,6.87,17.55,7.99c0.13,1.12-0.57,2-2.95,2.05
				c-2.39,0.05-10.17-1.33-9.72-0.36c0.45,0.97,22.8,6.48,22.84,11.03c0.03,4.55-12.73,12.41-23.2,12.48
				c-10.47,0.07-30.43-13.04-32.18-13.27C947.71,1010.56,962.67,996.44,962.67,996.44z"/>
		</g>
		<g>
			<path class="st8" d="M967.1,1006.07c0.46-4.67-4.43-9.63-4.43-9.63s-70.19-19.31-76-25.17c-5.81-5.86-32.72-99.2-32.72-99.2
				s-9.26-37.78-30.95-41.94c-18.85-3.62-31.87,5.71-40.4,16.64c-10.16,13.03-11.15,30.99-2.72,45.2
				c18.92,31.88,57.09,95.18,68.24,105.99c24.81,24.07,114.45,19.1,114.45,19.1S966.17,1015.45,967.1,1006.07z"/>
		</g>
	</g>
	<g>
		<g>
			<path class="st5" d="M2278.6,780.71c0,0,32.31-9.81,51.35,8.66c19.05,18.47,15.3,39.67,42.47,38.02s33.38,8.34,29.87,23.97
				c-3.51,15.63,30.12,11.23,40.29,30.3c10.17,19.07,11.62,54.18-40.84,52.38c-52.46-1.81-75.72-30.04-98.18-18.31
				c-22.46,11.72-59.5-7.14-49.78-23.57c9.72-16.43-9.14-12-12.47-45.56C2237.99,813.01,2255.91,783.23,2278.6,780.71z"/>
		</g>
		<g>
			<path class="st3" d="M2235.22,870.89c0,0,1.74-13.84,8.45-19.92c6.66-6.04,14.46-8.81,16.16-4.73
				c1.71,4.08-3.24,15.51-4.91,19.13c-1.67,3.62-1.75,9.54-8.93,11.08C2238.81,877.98,2235.22,870.89,2235.22,870.89z"/>
		</g>
		<g>
			<g>
				<path class="st8" d="M2253.25,869l-10.65-8.55c-1.58-1.27-1.84-3.58-0.57-5.17l19.22-23.95c1.27-1.58,3.58-1.84,5.17-0.57
					l10.65,8.55c1.58,1.27,1.84,3.58,0.57,5.17l-19.22,23.95C2257.15,870.01,2254.84,870.27,2253.25,869z"/>
			</g>
			<g>
				<path class="st27" d="M2253.13,866.75l-8.32-6.68c-1.36-1.09-1.58-3.08-0.49-4.44l17.78-22.15c1.09-1.36,3.08-1.58,4.44-0.49
					l8.32,6.68c1.36,1.09,1.58,3.08,0.49,4.44l-17.78,22.15C2256.48,867.63,2254.49,867.85,2253.13,866.75z"/>
			</g>
		</g>
		<g>
			<path class="st27" d="M2346.16,887.44c-28.36-5.99-28.16-3.08-46.72-2.6c0,0-22.09,1.18-36.85,5.4
				c-24.69,7.06-44.38,33.6-44.38,33.6l30.94-47.39L2233.3,868c0,0-71.72,66.1-54.21,92.12c14.59,21.69,72.29-23.29,70.92-16.84
				c-0.02,0.08-0.03,0.15-0.04,0.21c-4.24,29.58,19.13,73.16,19.13,73.16l43.54,34.18l41.54-29.56h0.01l3.38-1.22
				c0,0,6.85-3.4,8.89-19.59c0.25-2,1.7-19.1,3.14-36.33c1.55-18.6,3.08-37.34,3.08-37.34L2346.16,887.44z"/>
		</g>
		<g>
			<path class="st20" d="M2272.3,1026.27c0,0-16.38,47.91-13.47,82.98c1.76,21.2,30.22,171.93,31.82,181.71
				c1.5,9.22,21.96,128.58,21.96,128.58s-3.52,19.87,4,17.75c10.43-2.94,13.72-6.47,13.72-6.47s15.59-199.95,5.94-271.37
				c-9.65-71.42-9.76-133.19-9.76-133.19H2272.3z"/>
		</g>
		<g>
			<path class="st8" d="M2357.17,1024.42c0,0,30.56,41,33.41,68.72c2.85,27.72,4.47,125.07,10.54,152.09
				c6.07,27.02,28.37,79.02,28.37,163.29c0,0-2.32,4.83-9.47,7.4c-2.29,0.82-1.24-3.29-4.21-2.61
				c-5.9,1.35-53.9-119.16-56.59-124.58c-15.08-30.35-44.64-135.6-77.72-191.45c-7.94-13.41,4.87-66.73,4.87-66.73L2357.17,1024.42z
				"/>
		</g>
		<g>
			<path class="st3" d="M2311.5,895.16c5.45-2.47,7.83-6.52,6.64-12.41c-1.74-8.64-4.93-16.72-5.31-29.33l-1.82,0.42l-30.58,7.13
				c0,0,1.35,18.94,1.36,19.01C2282.62,892.25,2285.59,906.89,2311.5,895.16z"/>
		</g>
		<g>
			<path class="st28" d="M2280.44,860.97c0,0,1.02,9.66,1.35,18.79c17.21-1.06,25.79-17.08,29.22-25.91L2280.44,860.97z"/>
		</g>
		<g>
			<path class="st3" d="M2274.98,869.81c0,0,40.77-0.69,39.95-26.08c-0.82-25.39,3.89-42.57-22.18-43.2
				c-26.07-0.63-30.81,9.22-32.6,17.76C2258.36,826.83,2264.35,869.33,2274.98,869.81z"/>
		</g>
		<g>
			<path class="st5" d="M2272.4,801.73c0,0,13.7,33.14,33.16,37.45c19.46,4.32,27.66-1.13,27.66-1.13s-15.19-11.26-18.95-31.68
				C2314.26,806.37,2281.35,785.44,2272.4,801.73z"/>
		</g>
		<g>
			<path class="st5" d="M2277.62,800.31c0,0-9.21,3.8-12.82,10.73c-3.53,6.78-6.43,8.96-5.33,19.74c0,0-10.24-15.77-0.02-29.03
				C2270.29,787.69,2277.62,800.31,2277.62,800.31z"/>
		</g>
		<g>
			<path class="st29" d="M2354.18,1021.27L2354.18,1021.27l3.39-1.22c0,0,6.85-3.4,8.89-19.59c0.25-2,1.7-19.1,3.14-36.33
				c0,0-15.35-15.28-20.05-6.15c-4.7,9.12,6.15,26.34,2.17,36.51C2347.73,1004.66,2340.83,1018.31,2354.18,1021.27z"/>
		</g>
		<g>
			<path class="st6" d="M2269.1,1016.65c0,0,8.04,6.36,24.02,6.68c19.08,0.38,66.37-4.87,66.37-4.87s2.1,5.87,2.02,12.07
				c0,0-57.75,14.57-91.21,2.13C2270.29,1032.66,2265.97,1024.54,2269.1,1016.65z"/>
		</g>
		<g>
			<g>
				<path class="st11" d="M2288.54,1039.78c-4.8,0-8.71-4.42-8.71-9.86s3.91-9.85,8.71-9.85s8.71,4.42,8.71,9.85
					S2293.34,1039.78,2288.54,1039.78z M2288.54,1022.95c-3.21,0-5.82,3.13-5.82,6.97c0,3.84,2.61,6.97,5.82,6.97
					c3.21,0,5.82-3.13,5.82-6.97C2294.36,1026.08,2291.75,1022.95,2288.54,1022.95z"/>
			</g>
		</g>
		<g>
			<path class="st30" d="M2348.73,1268.73c0,0,40.91-9.06,63.76-19.82c0,0,23.09,129.36,31.86,173.58c1.36,6.88,4.82,17.3,6.15,23.5
				c2.48,11.56-0.32,22-0.32,22h-70.8c0,0,0.45-10.89,12.88-14.92c12.44-4.03,25.43-12.66,25.1-18.04
				S2348.73,1268.73,2348.73,1268.73z"/>
		</g>
		<g>
			<path class="st30" d="M2281.68,1272.15l60.5-0.45c0,0-5.07,147.43-2.76,163.12c2.31,15.68,2.76,33.18,2.76,33.18h-77.97
				c0,0-1.01-9.16,11.43-16.58c12.44-7.42,26.55-1.04,31.26-11.45C2311.59,1429.55,2281.68,1272.15,2281.68,1272.15z"/>
		</g>
		<g>
			<path class="st11" d="M2276.89,854.64c0.29,1.89-0.73,3.62-2.29,3.86c-1.56,0.24-3.05-1.1-3.35-2.99
				c-0.29-1.89,0.73-3.62,2.29-3.86C2275.1,851.41,2276.6,852.75,2276.89,854.64z"/>
		</g>
		<g>
			<path class="st3" d="M2478.81,969.51c0,0,7.34-13.72,14.17-14.59c6.83-0.87,19.21-5.58,18.42-2.95c-0.79,2.63-8.63,3.6-9.26,5.19
				c-0.62,1.59,12.02,2.75,15.6,2.68c3.58-0.07,11.93-1.08,11.84,0.72c-0.09,1.8-14.28,10.51-24.84,10.44s-23.15,5.17-23.15,5.17
				L2478.81,969.51z"/>
		</g>
		<g>
			<path class="st27" d="M2347.84,944.88c0,0,40.72,63.92,63.93,69.88c18.29,4.69,72.2-30.74,72.2-30.74
				c3.16-11.81-2.61-18.68-2.61-18.68s-54.62,12.35-59.52,10.83c-19.73-6.1-37.48-55.5-49.15-72.01
				c-9.79-13.84-26.52-16.72-26.52-16.72L2347.84,944.88z"/>
		</g>
		<g>
			<polygon class="st27" points="2216.4,918.61 2237.84,903.86 2227.08,927.72 2206.06,929.65 			"/>
		</g>
	</g>
	<g>
		<path class="st27" d="M1333.54,1253.31c0,0-68.83,15.75-68.83,60.93c0,0,0.7,22.75,25.39,16.46
			C1309.37,1325.8,1287.83,1299.04,1333.54,1253.31z"/>
	</g>
	<g>
		<path class="st27" d="M1329.38,1247.53c0,0-48.62-9.7-53.09,1.67C1269.39,1266.72,1303.13,1243.66,1329.38,1247.53z"/>
	</g>
	<g>
		<path class="st6" d="M2649.37,1474.21H131.39c-1.51,0-2.75-1.24-2.75-2.75v-0.7c0-1.51,1.24-2.75,2.75-2.75h2517.98
			c1.51,0,2.75,1.24,2.75,2.75v0.7C2652.13,1472.97,2650.89,1474.21,2649.37,1474.21z"/>
	</g>
	<g>
		<path class="st27" d="M1384.15,1249.77c0,0,29.51,34.01,17.79,55.48c-1.64,3-5.09,8.21-14.55,4.8
			c-9.46-3.42,2.01-15.83,1.58-31.52C1388.62,1266.07,1384.15,1249.77,1384.15,1249.77z"/>
	</g>
	<g>
		<g>
			<path class="st3" d="M1358.95,1243.12c7.68,1.21,25.55-4.13,26.85-4.25c11.08-1.06,0.39-11.97,0.39-11.97s-17.42-3.83-20.34-3.6
				c-0.96,0.08-2.54,0.39-4.25,0.81l2.99,2.92c0,0-14.51,1.53-14.67,4.9C1349.77,1235.31,1352.24,1242.06,1358.95,1243.12z"/>
		</g>
		<g>
			<path class="st3" d="M1365.85,1223.29l-12.34,1.5c0,3.24,9.49,2.18,9.96,3.78c0.46,1.6,2.65-2.23,2.65-2.23L1365.85,1223.29z"/>
		</g>
		<g>
			<path class="st3" d="M1480.93,1224.29c0,0-16.6,1.62-15.53,3.38c1.07,1.76,8.35,2.53,8.35,2.53l5.84-3.75L1480.93,1224.29z"/>
		</g>
		<g>
			<path class="st4" d="M1382.77,1232.29c-2.67-7.72,1.05-10.13,1.05-10.13s76.06-36.07,82.28-40.04
				c6.22-3.97,48.04-80.13,48.04-80.13s15.5-31.14,35.24-30.51c17.16,0.54,26.69,11.24,31.98,22.45c6.3,13.36,3.64,29.23-6.5,39.97
				c-22.78,24.1-68.51,71.83-80.36,79.07c-26.37,16.12-105.41,29.16-105.41,29.16S1384.87,1238.36,1382.77,1232.29z"/>
		</g>
		<g>
			<path class="st26" d="M1393.9,1314.95c11.48,13.23,35.69,21.78,82.4,23.95c3.75,0.18,7.52,0.32,11.31,0.44
				c3.9,0.12,7.81,0.2,11.72,0.25c12.69,0.18,25.32,0.03,37.36-0.37c11.67-0.4,22.79-1.04,32.86-1.88
				c19.7-1.64,35.42-4.02,43.54-6.75c2.43-0.82,4.18-1.66,5.16-2.54c0.83-0.74,1.51-1.62,2.02-2.61c2.95-5.46,1.41-14.42-2.15-24.29
				c-5.19-14.37-14.71-30.65-21.12-40.85c-1.29-2.04-2.43-3.82-3.41-5.3c-1.95-2.99-3.17-4.74-3.17-4.74s-21.82,2.03-51.69,5.9
				c-6.09,0.79-12.53,1.66-19.18,2.6c-64.22,9.08-128.21,25.41-128.15,47.07C1391.41,1309.12,1391.2,1311.84,1393.9,1314.95z"/>
		</g>
		<g>
			<path class="st24" d="M1473.42,1338.64c3.9,0.12,22,0.9,25.91,0.95c12.69,0.18,25.32,0.03,37.36-0.37l11.32-45.61
				C1530.51,1318.03,1479.05,1337.06,1473.42,1338.64z"/>
		</g>
		<g>
			<path class="st24" d="M1511.25,1471.1H1449c0.98-2.37,3.35-5.46,9.13-6.47c9.81-1.72,26.83-7.02,24.65-21.18
				c-2.21-14.35,21.67-16.2,21.67-16.2S1514.38,1465.64,1511.25,1471.1z"/>
		</g>
		<g>
			<path class="st26" d="M1392.89,1312.61c0,0,77.23,121.5,83.66,135.94c0,0,26.28,2.45,32.6-16.33c0,0-45.91-128.22-66.09-138.79
				C1422.88,1282.87,1392.89,1312.61,1392.89,1312.61z"/>
		</g>
		<g>
			<g>
				<path class="st3" d="M1548.64,1056.8c0,0-26.59,36.4-50.3,38.35c0,0,1.7-7.71,5.51-15.2c2.44-4.82,2.39-10.51-0.28-15.21
					c-0.04-0.07-0.08-0.14-0.12-0.21c-4.66-8.25-6.72-13.18-6.72-13.18l10.9-19.73l2.25-10.61c1.84,4.98,4,9.57,6.41,13.36
					C1528.72,1053.88,1548.64,1056.8,1548.64,1056.8z"/>
			</g>
			<g>
				<path class="st25" d="M1517.33,1034.18c0,0,3.86,18.24-13.88,30.35c-4.66-8.25-6.72-13.18-6.72-13.18l10.9-19.73
					C1516.35,1030.32,1517.33,1034.18,1517.33,1034.18z"/>
			</g>
			<g>
				<path class="st3" d="M1493.41,1062.34c0,0,33.36-18.17,21.72-38.78c-11.64-20.6-15.17-36.82-36.96-26.09
					c-21.79,10.73-21.45,20.91-19.24,28.73S1484.43,1066.54,1493.41,1062.34z"/>
			</g>
			<g>
				<path class="st26" d="M1515.01,982.55c0.18-0.52,0.83-1.13,2.51-1.88c0,0-1.71-0.34-3.55,0.32c-1.29-2.28-4.21-6.07-8.71-5.53
					c0,0,2.66,0.34,3.94,2.8c-6.66-3.12-18.22-2.79-45.5,10.34c-35.96,17.31-14.41,36.71-8.49,37.73
					c5.92,1.02,14.96-11.54,24.19-14.27c9.23-2.74,16.01,9.74,19.74,10.37c3.73,0.63,1.31-2.1,4.69-5.57
					c3.38-3.47,6.44,3.29,6.99,8.24c0.55,4.95,6.52,9.07,6.52,9.07s1.97-0.37,5.26-8.81c3.29-8.44-1.54-36.95-6.31-41.58
					C1515.87,983.38,1515.44,982.96,1515.01,982.55z"/>
			</g>
		</g>
		<g>
			<path class="st6" d="M1714.2,1431.38c0,0,7.76,11.78,9.57,15.59c1.8,3.82-1.74,11.94-7.06,13.16c-4.69,1.08-5.39,9.4-5.39,9.4
				h22.75c2.41,0,4.58-1.33,5.51-3.37c3.21-7.06,3.94-16.24,4.59-19.32c1.36-6.46,4.04-11.88,2.86-18.45
				c-1.18-6.55-12.39-10.35-32.82-10.29C1691.76,1418.18,1714.2,1431.38,1714.2,1431.38z"/>
		</g>
		<g>
			<path class="st8" d="M1647.32,1289.38c-17.16,18.18-143.13-19.43-132.57-29.01c2.69-2.43,1.77-5.36,2.86-9.28
				c5.23-18.6-5.18-50.42-9.64-62.75c-1.04-2.86-1.76-4.67-1.89-5.03c-4.26-11.51-7.55-23.5-9.71-35.08
				c-4.15-22.23-4.08-42.9,1.6-55.56c0.04-0.07,0.05-0.13,0.09-0.17c23.6-6.9,36.59-41.61,36.59-41.61s74.76,21.23,101.89,127.91
				c0,0,1.4,6.8,3.13,17.01h0.01c0.52,3.13,1.08,6.59,1.64,10.27c2.9,18.98,4.58,43.32,6.3,61.45c0.07,0.63,0.12,1.27,0.19,1.92
				C1648.67,1277.23,1650.17,1286.35,1647.32,1289.38z"/>
		</g>
		<g>
			<path class="st26" d="M1548.12,1271.34c0,0,12.56,1.65,37.89,3.52c26.25,1.94,54.07,6.08,58.59,14.9
				c1.5,2.92,0.45,10.31-2.47,20.52c-6.47,22.57-22.16,58.91-40.07,91.13c46.01,2.66,108.61,12.82,108.61,12.82
				c10.24,11.58,5.95,25.13,5.95,25.13c-3.28,0.03-13.16,1.42-26.63,3.6c-48.82,7.86-108.28,24.02-145.14,24.02
				c-8.06,0-14.1-5.73-16.55-13.21v-0.01C1513.13,1407.63,1548.12,1271.34,1548.12,1271.34z"/>
		</g>
		<g>
			<path class="st24" d="M1642.12,1313.7c-25.4-0.8-89.09-32.07-88.05-32.32c11.86-2.92,22.47-4.94,31.94-6.21
				c26.25,2.12,54.07,6.62,58.59,16.21C1646.09,1294.55,1645.05,1302.59,1642.12,1313.7z"/>
		</g>
		<g>
			<path class="st26" d="M1547.18,1056.06c0,0-31.96,6.65-35.08,34.65c-2.27,20.39,13.92,66.58,13.92,66.58l10.35-4.25
				c0,0-19.57-57.02-16.56-66.72c3.86-12.44,22.23-31.04,39.13-23.61L1547.18,1056.06z"/>
		</g>
		<g>
			<path class="st26" d="M1647.32,1289.38c-17.16,18.18-145.84-19.03-135.29-28.61c2.68-2.43,4.48-5.76,5.57-9.68
				c5.23-18.6-5.18-50.42-9.64-62.75c-1.04-2.86-10.88-36.74-11.02-37.1l36.23-7.84c0,0,10.25,17.65,23.56,26.71
				c17.45,11.89,45.66,25.63,82.93,25.69h0.01c0.52,3.13,1.08,6.59,1.64,10.27c2.9,18.98,4.58,43.32,6.3,61.45
				c0.07,0.63,0.12,1.27,0.19,1.92C1648.67,1277.23,1650.17,1286.35,1647.32,1289.38z"/>
		</g>
		<g>
			<g>
				<g>
					<path class="st12" d="M1374.18,1468h-24.94v-277.94c0-19.44-15.81-35.26-35.25-35.26h-64.93v-24.94h64.93
						c33.19,0,60.2,27,60.2,60.2V1468z"/>
				</g>
			</g>
			<g>
				<rect x="1300.32" y="1126.97" class="st31" width="4.5" height="31.87"/>
			</g>
			<g>
				
					<rect x="1360.42" y="1194.83" transform="matrix(-1.836970e-16 1 -1 -1.836970e-16 2573.4351 -151.9097)" class="st31" width="4.5" height="31.87"/>
			</g>
			<g>
				
					<rect x="1360.42" y="1248.33" transform="matrix(-1.836970e-16 1 -1 -1.836970e-16 2626.9419 -98.4028)" class="st31" width="4.5" height="31.87"/>
			</g>
			<g>
				<rect x="1346.04" y="1430.78" class="st31" width="30.14" height="37.22"/>
			</g>
		</g>
		<g>
			<g>
				<g>
					<path class="st26" d="M1377.97,1203.14l117.16,46.04c2.34,0.92,4.99-0.23,5.91-2.57l0.77-1.97c0.78-1.98-0.2-4.21-2.17-4.99
						l-117.82-46.3L1377.97,1203.14z"/>
				</g>
				<g>
					<g>
						<path class="st26" d="M1366.59,1199.3l2.61,1.02l0.79-5.93c0.68-5.1,5.81-8.31,10.39-6.51l34.22,13.45l3.39-8.63l-43.34-17.03
							c-4.22-1.66-8.97,1.16-9.82,5.83l-1.96,10.84C1362.33,1195.32,1363.88,1198.23,1366.59,1199.3z"/>
					</g>
				</g>
				<g>
					
						<rect x="1391.92" y="1191.81" transform="matrix(-0.9307 -0.3657 0.3657 -0.9307 2271.3257 2826.9917)" class="st26" width="22.99" height="13.14"/>
				</g>
			</g>
			<g>
				<g>
					<path class="st32" d="M1408.83,1201.23c0.29-0.75-0.07-1.59-0.82-1.88s-1.59,0.07-1.88,0.82c-0.29,0.75,0.08,1.59,0.82,1.88
						C1407.69,1202.34,1408.53,1201.98,1408.83,1201.23z"/>
				</g>
				<g>
					<path class="st32" d="M1400.19,1197.84c0.29-0.74-0.07-1.59-0.82-1.88c-0.75-0.29-1.59,0.07-1.88,0.82s0.07,1.59,0.82,1.88
						S1399.9,1198.59,1400.19,1197.84z"/>
				</g>
			</g>
		</g>
		<g>
			<path class="st3" d="M1505.53,1222.82c0,0-5.74,1.35-11.89,1.55c-5.54,0.18-11.4-0.84-14.05,0.27
				c-5.61,2.34-23.38,14.55-14.8,19.78c8.58,5.23,17.42,3.4,23.29-1.35c5.86-4.75,21.8-5.14,21.8-5.14L1505.53,1222.82z"/>
		</g>
		<g>
			<path class="st8" d="M1565.26,1081.76c38.53,11.12,61.99,103.58,56.57,131.26c-5.43,27.67-114.19,29.12-114.19,29.12
				s-6.11-4.78-6.83-9.72c-0.92-6.3,0.07-9.2,0.07-9.2s68.77-18.67,70.34-26.61s-33.1-50.03-32.58-72.85
				S1544.26,1075.7,1565.26,1081.76z"/>
		</g>
	</g>
	<g>
		<path class="st27" d="M1418.3,1468c0,0-14.91-23.58-57.19-18.61c-42.29,4.96-72.41,27.7-173.29,2.32
			c-100.88-25.38-91.77,20.16-149.22,10.35c-57.44-9.81-82.66,5.94-82.66,5.94H1418.3z"/>
	</g>
	<g>
		<path class="st27" d="M1311.61,1126.97c0,0,11.55-25.83,33.8-21.12c0,0,5.71,1.43,4.28,7.27
			C1348.26,1118.97,1330.87,1111.01,1311.61,1126.97z"/>
	</g>
</g>
</svg>
